<?xml version="1.0" encoding="utf-8"?>
<svg xmlns="http://www.w3.org/2000/svg" width="845" height="609" fill="none">
  <path d="M117.401 456.35c-25.353 10.503-36.218 7.998-38.482 5.433l-4.98-17.204 59.76-56.59 122.689-3.622c6.188 4.98 13.944 17.656-4.527 28.521-23.089 13.582-37.576 3.622-44.367 2.717-6.791-.906-58.402 27.616-90.093 40.745Z" fill="#ECF1F8"/>
  <path d="M205.263 403.97c3.874 4.245 10.948 7.873 14.002 9.157-9.373-.533-25.792-5.029-32.83-7.211 4.662-2.417 14.955-6.191 18.828-1.946Z" fill="#DCE1E5" stroke="#BCC2C6" stroke-width=".58"/>
  <path d="M256.998 398.341c7.115-5.633 8.4-14.206 8.153-17.789l-66.337 27.425c6.794 2.594 22.087 7.189 28.906 4.817 8.524-2.964 20.383-7.411 29.278-14.453Z" fill="#DADFE3" stroke="#BCC2C6" stroke-width=".58"/>
  <path d="M175.527 350.228c3.689-1.688 9.763-1.913 13.566-.502l65.142 22.089 3.394 2.909 8.198-4.099v9.168l-.018.006c-.01.991-.777 2.142-2.574 2.964L90.83 461.684c-3.69 1.688-9.763 1.913-13.567.502L3.92 434.761c-1.9-.705-2.874-1.685-2.914-2.699L1 432.061v-10.199h10.638v3.388l163.889-75.022Z" fill="#DADFE3" stroke="#BCC2C6" stroke-width=".58"/>
  <path d="M175.04 340.559c4.017-1.841 10.631-2.087 14.772-.548l72.598 26.964c4.142 1.538 4.243 4.277.227 6.118L91.655 451.462c-4.017 1.841-10.63 2.086-14.772.548L4.285 425.046c-4.141-1.538-4.243-4.278-.227-6.119l170.982-78.368Z" fill="#EEEFF1" stroke="#BCC2C6" stroke-width=".575" stroke-miterlimit="10"/>
  <path d="M175.462 342.451c4.017-1.841 10.63-2.086 14.772-.548l68.179 25.323c4.141 1.538 4.243 4.278.227 6.119L91.769 449.829c-4.017 1.841-10.63 2.086-14.772.548L8.818 425.054c-4.141-1.538-4.243-4.278-.227-6.119l166.871-76.484Z" fill="#DCE1E5" stroke="#BCC2C6" stroke-width=".575" stroke-miterlimit="10"/>
  <path d="M8.575 418.942c-4.016 1.841-3.915 4.581.227 6.119l68.179 25.323c4.142 1.538 10.755 1.293 14.772-.548l128.18-58.751-83.178-30.893-128.18 58.75Z" fill="#EEEFF1" stroke="#BCC2C6" stroke-width=".58"/>
  <path d="m24.991 416.787 70.239 26.087 107.698-49.363-70.238-26.087-107.699 49.363Z" fill="#fff" stroke="#BCC2C6" stroke-width=".58"/>
  <path d="M202.153 405.219c.084 1.238-.199 3.037-.203 3.484l-55.182 25.013c2.228-5.774 5.069-8.081 8.491-9.788 3.421-1.707 37.292-16.814 41.342-18.627 4.051-1.813 5.447-1.63 5.552-.082Z" fill="#EEEFF1" stroke="#BCC2C6" stroke-width=".575" stroke-miterlimit="10"/>
  <path d="M121.405 402.467c-.868-.492-.868-1.198.001-1.576.87-.377 2.278-.284 3.147.209.868.492.867 1.198-.002 1.575-.869.378-2.278.285-3.146-.208Zm-7.318-4.151c-.869-.493-.868-1.199.001-1.576.869-.378 2.278-.285 3.146.208.869.493.868 1.198-.001 1.576-.869.377-2.278.284-3.146-.208Z" fill="#DCE1E5"/>
  <path d="m107.192 390.233 5.687 1.14 1.763-.766c.556-.242 1.373-.29 2.124-.126l22.608 4.947c.559.122.734.487.321.666l-5.047 2.189c-.379.165-.208.501.31.604l6.827 1.373c.574.115.767.489.346.671l-7.03 3.055 1.523 2.944c.263.507-.017 1.011-.733 1.323l-4.298 1.867c-.716.311-1.759.381-2.735.186l-5.68-1.139-1.247.542c-.599.26-1.471.319-2.288.155l-14.335-2.87c-1.188-.238-2.117-.765-2.432-1.381l-3.793-7.41c-.216-.422.017-.843.615-1.103l1.245-.541-1.522-2.948c-.26-.506.018-1.01.734-1.321l4.303-1.87c.717-.311 1.758-.382 2.734-.187Zm18.845 17.69 3.178.636c.345.069.709.045.962-.065l2.85-1.239c.251-.109.35-.285.258-.464l-.85-1.648-6.398 2.78Zm-18.261-12.032 1.017 2.037-5.414 2.352 2.017 3.894c.409.789 1.597 1.462 3.117 1.765l7.474 1.493 5.414-2.352 4.019.809 6.032-2.642-1.169-2.265c-.353-.685-1.384-1.27-2.705-1.534l-5.258-1.054-1.406-2.727c-.353-.685-1.384-1.27-2.705-1.534l-4.37-.876-6.063 2.634Zm-4.56-2.69c-.251.109-.35.286-.258.465l.85 1.648 6.398-2.78-3.178-.636c-.345-.069-.709-.045-.962.065l-2.85 1.238Z" fill="#DCE1E5"/>
  <path d="m110.019 400.511.006.012c.806 1.618 3.243 3.004 6.367 3.619.57.111.762.481.346.662l-1.314.571-.982-.193c-3.315-.653-5.899-2.122-6.754-3.841l-.26-.518 1.316-.571c.415-.181 1.128-.037 1.275.259Z" fill="#DCE1E5"/>
  <ellipse rx="12.819" ry="8.117" transform="matrix(.9418 .33616 -.85249 .52275 199.559 365.554)" stroke="#BCC2C6" stroke-width=".522"/>
  <path d="M213.577 369.344c-.125-.356-1.015-.66-1.445-.768-1.209.156-2.076.957-2.358 1.339l1.036.828 1.096-.022c.609-.31 1.796-1.02 1.671-1.377Z" fill="#DCE1E5"/>
  <path d="M196.472 362.911c-.048-.172-.381-.268-.744-.216-.363.052-.619.233-.571.405l1.315-.189Zm-1.908.889-.445.273.983.351.445-.273-.983-.351Zm.593-.7c.014.049-.016.346-.593.7l.983.351c.831-.509.992-1.003.925-1.24l-1.315.189Zm4.076-.032c-.048-.171-.382-.268-.745-.216-.363.052-.618.234-.57.405l1.315-.189Zm-2.4 1.542-.445.273.983.351.445-.273-.983-.351Zm1.085-1.353c.019.069.043.662-1.085 1.353l.983.351c1.433-.878 1.478-1.674 1.417-1.893l-1.315.189Zm4.371.138c-.048-.171-.381-.268-.744-.215-.364.052-.619.233-.571.405l1.315-.19Zm-3.187 2.026-.445.273.983.351.445-.273-.983-.351Zm1.872-1.836c-.006-.021.005.013-.045.127-.043.1-.122.239-.255.409-.267.338-.746.793-1.572 1.3l.983.351c.935-.574 1.495-1.1 1.817-1.509a2.38 2.38 0 0 0 .324-.52c.054-.125.089-.255.063-.348l-1.315.19Zm4.199.012c-.048-.171-.382-.268-.745-.216-.363.053-.618.234-.57.405l1.315-.189Zm-3.687 2.674-.445.273.983.351.445-.273-.983-.351Zm2.372-2.485c-.003-.012.005.047-.044.192a2.224 2.224 0 0 1-.291.544c-.317.451-.919 1.064-2.037 1.749l.983.351c1.242-.761 1.93-1.454 2.302-1.983.185-.264.292-.488.351-.659.054-.159.074-.299.051-.383l-1.315.189Z" fill="#BCC2C6"/>
  <path d="M193.233 364.898c-.366.023-.653-.102-.642-.279.012-.178.318-.341.684-.365l-.042.644Zm1.33-1.097.445-.273.983.351-.445.273-.983-.351Zm-1.288.453c.107-.007.71-.099 1.288-.453l.983.351a5.513 5.513 0 0 1-2.313.746l.042-.644Zm1.011 1.847c-.366.024-.653-.101-.641-.279.011-.177.318-.34.684-.364l-.043.643Zm2.546-1.49.445-.273.983.351-.445.273-.983-.351Zm-2.503.847a6.338 6.338 0 0 0 2.503-.847l.983.351c-1.432.878-3.062 1.109-3.529 1.139l.043-.643Zm1.439 1.936c-.366.023-.653-.101-.641-.279.012-.178.318-.341.684-.364l-.043.643Zm3.334-1.973.445-.273.983.351-.445.273-.983-.351Zm-3.291 1.33c-.045.003.029-.002.251-.054.195-.046.461-.119.775-.224a11.146 11.146 0 0 0 2.265-1.052l.983.351a12.93 12.93 0 0 1-3.616 1.502 4.749 4.749 0 0 1-.701.12l.043-.643Zm1.134 1.891c-.366.024-.653-.101-.641-.279.012-.177.318-.34.684-.364l-.043.643Zm4.54-2.37.445-.273.983.351-.445.273-.983-.351Zm-4.497 1.727c-.026.002.098-.01.384-.071a11.45 11.45 0 0 0 1.044-.275c.846-.262 1.95-.695 3.069-1.381l.983.351a15.524 15.524 0 0 1-4.746 1.895 6.111 6.111 0 0 1-.777.124l.043-.643Z" fill="#BCC2C6"/>
  <path d="M205.202 370.819c.842.831 2.027 1.276 2.514 1.395.504-.281-.76-1.48-1.455-2.044-.608-.449-2.111-.389-1.059.649Z" fill="#DCE1E5"/>
  <path d="M207.715 372.215c-.487-.119-1.671-.564-2.513-1.394-1.053-1.039.733-1.174 1.341-.725m6.332 3.906c.236-.9.754-2.893.936-3.657.227-.955-.542-1.345-1.571-1.712l-1.077-.397" stroke="#BCC2C6" stroke-width=".392" stroke-linecap="round"/>
  <rect width="4.839" height="3.745" rx=".261" transform="matrix(.74227 .43823 -1.05212 .42774 208.505 365.768)" fill="#DCE1E5" stroke="#BCC2C6" stroke-width=".392" stroke-linecap="round"/>
  <path d="M206.407 370.355c.555.755 1.244 1.051 1.518 1.105.906-.53.146-1.541-.347-1.98-.329-.294-1.104-.818-1.574-.562-.586.321-.292.493.403 1.437Z" fill="#DCE1E5"/>
  <path d="M207.919 371.459c-.275-.054-.963-.35-1.518-1.105-.695-.944-.904-1.271-.403-1.437.501-.165.9.063 1.574.562" stroke="#BCC2C6" stroke-width=".392" stroke-linecap="round"/>
  <path d="M208.098 370.992c-.99 1.151-.235 2.155.266 2.513 1.671-.625 2.672-2.318 2.963-3.087-.552-.734-1.785-2.342-2.303-2.895-.647-.691-2.215-.138-2.075.411.112.439.813 2.222 1.149 3.058Z" fill="#DCE1E5"/>
  <path d="M208.364 373.505c-.501-.358-1.256-1.362-.266-2.513-.336-.836-1.037-2.619-1.149-3.058-.14-.549 1.428-1.102 2.075-.411.518.553 1.751 2.161 2.303 2.895" stroke="#BCC2C6" stroke-width=".392" stroke-linecap="round"/>
  <circle opacity=".5" cx="230.284" cy="68.133" r="23.578" fill="#E6E8EC"/>
  <circle opacity=".5" cx="778.902" cy="168.195" r="16.677" fill="#E6E8EC"/>
  <circle opacity=".5" cx="73.29" cy="271.133" r="10.351" fill="#E6E8EC"/>
  <path d="M531.673 394.363H410.051c-4.412 0-5.962-2.146-3.577-4.65l60.811-65.104c2.385-2.623 7.989-4.65 12.401-4.65h121.741c4.411 0 5.961 2.146 3.577 4.65l-60.811 65.104c-2.504 2.623-8.108 4.65-12.52 4.65Z" fill="#ECF1F8"/>
  <path d="M397.888 387.805v6.796h141.177v-6.796" fill="#fff"/>
  <path d="M397.888 387.805v6.796h141.177v-6.796" stroke="#B8BEC3" stroke-width=".575" stroke-miterlimit="10"/>
  <path d="M521.06 329.856H415.893l-3.1 43.283H524.16l-3.1-43.283Z" fill="#DCE1E5" stroke="#B8BEC3" stroke-width=".575" stroke-miterlimit="10" stroke-linejoin="round"/>
  <path d="m524.16 372.185 14.905 15.62H397.888l14.905-15.62" fill="#fff"/>
  <path d="m524.16 372.185 14.905 15.62H397.888l14.905-15.62" stroke="#B8BEC3" stroke-width=".575" stroke-miterlimit="10" stroke-linecap="round" stroke-linejoin="round"/>
  <path d="M698.843 330.452H257.308c-7.869 0-14.308-6.439-14.308-14.308V15.308C243 7.438 249.439 1 257.308 1h441.535c7.87 0 14.309 6.439 14.309 14.309v300.715c0 7.989-6.439 14.428-14.309 14.428Z" fill="#fff" stroke="#BCC2C6" stroke-width=".575" stroke-miterlimit="10"/>
  <mask id="a" style="mask-type:alpha" maskUnits="userSpaceOnUse" x="254" y="12" width="447" height="262">
    <path d="M255.106 260.181V13.193h445.446v260.113H255.106v-13.125Z" fill="#fff" stroke="#BCC2C6" stroke-width=".575" stroke-miterlimit="10"/>
  </mask>
  <g mask="url(#a)">
    <path d="M293.841 16h-39v257h39V16Z" fill="#1C3FFF"/>
    <g clip-path="url(#b)">
      <path d="M266.174 33.91v1.652c0 .143.079.278.207.356l1.17.677v-3.703l-1.17.676a.383.383 0 0 0-.207.342Zm15.451-.349-1.169-.676v3.703l1.169-.677a.403.403 0 0 0 .207-.356v-1.652a.398.398 0 0 0-.207-.342Zm1.362-1.773-1.44-.826-.214-.121v-3.568a1.192 1.192 0 0 0-1.782-1.032l-.999.57-.641.37v-1.908c0-.321-.136-.634-.364-.855a1.183 1.183 0 0 0-1.383-.192l-8.564 4.557c-.57.306-.919.89-.919 1.538v.52l-.214.121-1.448.826A2.037 2.037 0 0 0 264 33.547v2.492c0 .727.392 1.396 1.019 1.76l1.441.832.214.121v.242c.007.648.356 1.247.919 1.574l5.248 3.04c.349.2.742.307 1.148.307.399 0 .792-.107 1.141-.306l5.276-3.04a1.84 1.84 0 0 0 .92-1.575v-.242l.214-.12 1.44-.834A2.036 2.036 0 0 0 284 36.04v-2.492a2.03 2.03 0 0 0-1.013-1.759Zm.143 4.251c0 .413-.221.798-.585 1.004l-2.089 1.204v.719c0 .349-.185.67-.485.84l-5.276 3.041c-.435.25-.977.25-1.412 0l-5.248-3.04a.966.966 0 0 1-.484-.841v-.72l-2.09-1.203a1.17 1.17 0 0 1-.584-1.004v-2.492c0-.413.221-.797.577-1.004l2.089-1.21v-1.026c0-.32.179-.62.464-.77l8.563-4.556c.214-.114.471.042.464.277v2.92c0 .22.235.356.427.249l2.517-1.445a.318.318 0 0 1 .478.277v4.073l2.089 1.204c.364.206.585.59.585 1.004v2.5Zm-5.626-4.856a1.58 1.58 0 0 0-1.568 0l-1.933 1.118-1.932-1.118a1.582 1.582 0 0 0-1.569 0l-1.611.926v3.51l1.433.84v3.14l2.767 1.589c.563.32 1.247.32 1.811 0l2.745-1.588v-3.14l1.483-.848-.014-3.51-1.612-.92Zm-6.538 2.862a.91.91 0 0 1 .913-.911c.506 0 .912.406.912.911a.914.914 0 0 1-1.825 0Zm5.362 4.544-.364.213a3.897 3.897 0 0 1-3.929.007l-.356-.213v-.755c0-.242.264-.392.47-.27a3.645 3.645 0 0 0 3.701-.008l.007-.007a.314.314 0 0 1 .471.27v.763Zm-.2-3.632a.91.91 0 0 1-.913-.912.91.91 0 0 1 .913-.911.91.91 0 0 1 .913.911.914.914 0 0 1-.913.912Z" fill="#fff"/>
    </g>
    <path d="M278.225 82h-7.769c-2.538 0-4.615-1.955-4.615-4.344v-7.312c0-2.39 2.077-4.344 4.615-4.344h7.769c2.539 0 4.616 1.955 4.616 4.344v7.312c0 2.39-2.077 4.344-4.616 4.344Zm0 23h-7.769c-2.538 0-4.615-1.955-4.615-4.344v-7.312c0-2.39 2.077-4.344 4.615-4.344h7.769c2.539 0 4.616 1.955 4.616 4.344v7.312c0 2.389-2.077 4.344-4.616 4.344Z" fill="#556FFF"/>
    <path d="M278.225 128h-7.769c-2.538 0-4.615-1.955-4.615-4.344v-7.312c0-2.389 2.077-4.344 4.615-4.344h7.769c2.539 0 4.616 1.955 4.616 4.344v7.312c0 2.389-2.077 4.344-4.616 4.344Z" fill="#0E2188"/>
    <path d="M278.225 151h-7.769c-2.538 0-4.615-1.955-4.615-4.344v-7.312c0-2.389 2.077-4.344 4.615-4.344h7.769c2.539 0 4.616 1.955 4.616 4.344v7.312c0 2.389-2.077 4.344-4.616 4.344Zm0 23h-7.769c-2.538 0-4.615-1.955-4.615-4.344v-7.312c0-2.389 2.077-4.344 4.615-4.344h7.769c2.539 0 4.616 1.955 4.616 4.344v7.312c0 2.389-2.077 4.344-4.616 4.344Zm0 24h-7.769c-2.538 0-4.615-1.955-4.615-4.344v-7.312c0-2.389 2.077-4.344 4.615-4.344h7.769c2.539 0 4.616 1.955 4.616 4.344v7.312c0 2.389-2.077 4.344-4.616 4.344Zm-1.509 44.731h-4.241c-1.386 0-2.52-1.047-2.52-2.326v-3.915c0-1.279 1.134-2.326 2.52-2.326h4.241c1.385 0 2.519 1.047 2.519 2.326v3.915c0 1.279-1.134 2.326-2.519 2.326Zm-.001 15.705h-4.241c-1.386 0-2.52-1.047-2.52-2.326v-3.915c0-1.279 1.134-2.326 2.52-2.326h4.241c1.385 0 2.519 1.047 2.519 2.326v3.915c0 1.279-1.134 2.326-2.519 2.326Z" fill="#556FFF"/>
    <path fill="#FAFAFA" d="M294.083 16.193h406.47v63.105h-406.47z"/>
    <path fill="#EFF1F4" d="M294.083 76.298h406.47v215.299h-406.47z"/>
    <rect x="309.24" y="92.074" width="193.027" height="96.513" rx="4.6" fill="#fff" stroke="#E5E5E5" stroke-width=".575" stroke-miterlimit="10"/>
    <rect x="316.711" y="103.522" width="25.984" height="3.712" rx="1.856" fill="#D7DBE2"/>
    <rect x="316.711" y="110.637" width="9.589" height="3.712" rx="1.856" fill="#D7DBE2"/>
    <rect x="309.24" y="200.249" width="165.805" height="64.342" rx="4.601" fill="#fff" stroke="#E5E5E5" stroke-width=".575" stroke-miterlimit="10"/>
    <rect x="484.95" y="200.674" width="127.666" height="64.408" rx="4.601" fill="#fff" stroke="#E5E5E5" stroke-width=".575" stroke-miterlimit="10"/>
    <path fill-rule="evenodd" clip-rule="evenodd" d="M529.609 234.811a9.65 9.65 0 1 0 14.229-12.479 9.654 9.654 0 0 0-10.697-.701l-5.582-9.667a20.807 20.807 0 0 1 23.075 1.512 20.807 20.807 0 0 1 7.433 21.897 20.814 20.814 0 0 1-17.386 15.247 20.815 20.815 0 0 1-20.739-10.228l9.667-5.581Z" fill="#1C3FFF"/>
    <path fill-rule="evenodd" clip-rule="evenodd" d="M537.965 220.339a9.642 9.642 0 0 0-8.914 5.956 9.65 9.65 0 0 0 7.032 13.154 9.642 9.642 0 0 0 11.53-9.462h11.164a20.811 20.811 0 1 1-20.812-20.812v11.164Z" fill="#5BC89A"/>
    <path fill-rule="evenodd" clip-rule="evenodd" d="M574.255 234.811a9.65 9.65 0 1 0 14.229-12.479 9.654 9.654 0 0 0-10.697-.701l-5.582-9.667a20.807 20.807 0 0 1 23.075 1.512 20.807 20.807 0 0 1 7.433 21.897 20.814 20.814 0 0 1-17.386 15.247 20.815 20.815 0 0 1-20.739-10.228l9.667-5.581Z" fill="#1C3FFF"/>
    <path d="M582.611 209.175a20.809 20.809 0 0 0-19.227 12.848 20.811 20.811 0 0 0 19.227 28.775v-11.163a9.645 9.645 0 0 1-9.463-7.766 9.65 9.65 0 0 1 9.463-11.53v-11.164Z" fill="#FFCD92"/>
    <rect x="493.001" y="224.127" width="14.952" height="3.45" rx="1.725" fill="#D7DBE2"/>
    <rect x="493.001" y="231.028" width="5.751" height="3.45" rx="1.725" fill="#D7DBE2"/>
    <rect x="624.456" y="200.249" width="57.846" height="64.342" rx="4.601" fill="#fff" stroke="#E5E5E5" stroke-width=".575" stroke-miterlimit="10"/>
    <rect x="512.166" y="92.074" width="170.136" height="96.513" rx="4.601" fill="#fff" stroke="#E5E5E5" stroke-width=".575" stroke-miterlimit="10"/>
    <path d="m317.07 38.096-1.889-1.885a3.27 3.27 0 0 0 .548-1.779c0-1.733-1.432-3.162-3.168-3.162a3.172 3.172 0 0 0-3.168 3.162 3.162 3.162 0 0 0 3.168 3.162 3.26 3.26 0 0 0 1.767-.532l1.889 1.885c.137.152.365.152.518 0l.335-.334c.152-.152.152-.38 0-.517Zm-6.459-3.664c0-1.064.868-1.946 1.95-1.946 1.066 0 1.95.882 1.95 1.946 0 1.08-.884 1.946-1.95 1.946a1.942 1.942 0 0 1-1.95-1.946Z" fill="#ADADAF"/>
    <rect x="326.254" y="32.279" width="63.414" height="4.64" rx="2.32" fill="#E5E5E5"/>
    <path d="M605.183 42.045h-6.927c-2.264 0-4.116-1.678-4.116-3.729V32.04c0-2.05 1.852-3.728 4.116-3.728h6.927c2.263 0 4.115 1.678 4.115 3.728v6.276c0 2.051-1.852 3.729-4.115 3.729Z" fill="#E5E5E5"/>
    <rect x="613.32" y="29.492" width="55.681" height="4.021" rx="2.011" fill="#E5E5E5"/>
    <rect x="613.32" y="36.917" width="34.646" height="2.475" rx="1.237" fill="#F4F4F4"/>
    <path d="M682.026 34.49a.391.391 0 0 0 .085-.423.393.393 0 0 0-.351-.242h-3.093a.397.397 0 0 0-.363.242.391.391 0 0 0 .085.422l1.547 1.547a.382.382 0 0 0 .278.109.377.377 0 0 0 .266-.109l1.546-1.547Z" fill="#1C3FFF"/>
    <circle cx="555.628" cy="34.6" r="7.004" fill="#fff" stroke="#E5E5E5" stroke-width="1.15" stroke-miterlimit="10"/>
    <path d="M558.219 34.598a.485.485 0 0 0-.483-.484h-1.547v-1.546a.485.485 0 0 0-.483-.484.478.478 0 0 0-.484.484v1.546h-1.547a.477.477 0 0 0-.483.484.47.47 0 0 0 .483.483h1.547v1.547a.47.47 0 0 0 .484.483.477.477 0 0 0 .483-.483V35.08h1.547a.477.477 0 0 0 .483-.483Z" fill="#1C3FFF"/>
    <circle cx="575.426" cy="34.599" r="7.004" fill="#fff" stroke="#E5E5E5" stroke-width="1.15" stroke-miterlimit="10"/>
    <path d="M575.503 37.69a.77.77 0 0 0 .773-.772h-1.546c0 .435.338.773.773.773Zm2.598-1.8c-.23-.253-.677-.628-.677-1.873 0-.93-.652-1.68-1.534-1.872v-.254a.397.397 0 0 0-.387-.387.39.39 0 0 0-.387.387v.254c-.894.193-1.546.942-1.546 1.872 0 1.245-.447 1.62-.677 1.873a.356.356 0 0 0-.097.254c0 .206.157.387.387.387h4.628c.242 0 .387-.181.399-.387a.366.366 0 0 0-.109-.253Z" fill="#1C3FFF"/>
    <rect x="577.746" y="27.019" width="7.115" height="4.64" rx="2.32" fill="#FF8E88"/>
    <rect x="374.821" y="51.458" width="14.848" height="14.848" rx="4.601" fill="#E5E5E5"/>
    <rect x="308.841" y="51.318" width="40" height="15" rx="4.601" fill="#E5E5E5"/>
    <rect x="398.949" y="51.458" width="14.848" height="14.848" rx="4.601" fill="#E5E5E5"/>
    <rect x="355.332" y="51.459" width="14.848" height="14.848" rx="4.601" fill="#fff" stroke="#E5E5E5" stroke-width="1.15" stroke-miterlimit="10"/>
    <rect x="358.736" y="54.861" width="8.043" height="8.043" rx="2.3" fill="#E5E5E5"/>
    <rect x="418.438" y="51.458" width="14.848" height="14.848" rx="4.601" fill="#fff" stroke="#E5E5E5" stroke-width="1.15" stroke-miterlimit="10"/>
    <rect x="421.84" y="54.862" width="8.043" height="8.043" rx="2.3" fill="#E5E5E5"/>
    <path d="M667.67 100.589h-105.7v.476h105.7v-.476Zm0 12.949H561.969v.476H667.67v-.476Zm0 12.948H561.969v.476H667.67v-.476Zm0 12.948H561.969v.476H667.67v-.476Z" fill="#E5E5E5"/>
    <path d="M568.689 129.316h-3.683v10.342h3.683v-10.342Z" fill="#FF8E88"/>
    <path d="M568.689 124.523h-3.683v4.793h3.683v-4.793Z" fill="#FFCD92"/>
    <path d="M568.69 117.573h-3.684v6.951h3.684v-6.951Z" fill="#1C3FFF"/>
    <path d="M580.501 132.763h-3.684v6.895h3.684v-6.895Z" fill="#FF8E88"/>
    <path d="M580.501 121.974h-3.684v10.79h3.684v-10.79Z" fill="#FFCD92"/>
    <path d="M580.501 115.331h-3.683v6.642h3.683v-6.642Z" fill="#1C3FFF"/>
    <path d="M592.256 130.494h-3.684v9.164h3.684v-9.164Z" fill="#FF8E88"/>
    <path d="M592.256 122.954h-3.684v7.539h3.684v-7.539Z" fill="#FFCD92"/>
    <path d="M592.256 116.564h-3.684v6.39h3.684v-6.39Z" fill="#1C3FFF"/>
    <path d="M604.011 133.996h-3.684v5.662h3.684v-5.662Z" fill="#FF8E88"/>
    <path d="M604.011 119.955h-3.684v14.041h3.684v-14.041Z" fill="#FFCD92"/>
    <path d="M604.011 108.549h-3.684v11.435h3.684v-11.435Z" fill="#1C3FFF"/>
    <path d="M615.765 121.609h-3.683v18.049h3.683v-18.049Z" fill="#FF8E88"/>
    <path d="M615.765 118.723h-3.683v2.914h3.683v-2.914Z" fill="#FFCD92"/>
    <path d="M615.766 108.549h-3.683v10.174h3.683v-10.174Z" fill="#1C3FFF"/>
    <path d="M627.52 125.337h-3.683v14.321h3.683v-14.321Z" fill="#FF8E88"/>
    <path d="M627.52 120.544h-3.683v4.765h3.683v-4.765Z" fill="#FFCD92"/>
    <path d="M627.521 104.149h-3.684v16.395h3.684v-16.395Z" fill="#1C3FFF"/>
    <path d="M639.275 117.573h-3.684v22.085h3.684v-22.085Z" fill="#FF8E88"/>
    <path d="M639.275 109.642h-3.684v7.959h3.684v-7.959Z" fill="#FFCD92"/>
    <path d="M639.275 100.813h-3.683v8.829h3.683v-8.829Z" fill="#1C3FFF"/>
    <path d="M651.03 111.688h-3.684v27.97h3.684v-27.97Z" fill="#FF8E88"/>
    <path d="M651.03 107.288h-3.684v4.4h3.684v-4.4Z" fill="#FFCD92"/>
    <path d="M651.03 100.813h-3.683v6.474h3.683v-6.474Z" fill="#1C3FFF"/>
    <path d="M662.785 122.31h-3.684v17.348h3.684V122.31Z" fill="#FF8E88"/>
    <path d="M662.785 111.688h-3.684v10.622h3.684v-10.622Z" fill="#FFCD92"/>
    <path d="M662.785 107.288h-3.684v4.4h3.684v-4.4Z" fill="#1C3FFF"/>
    <rect x="539.388" y="138.246" width="9.589" height="3.712" rx="1.856" fill="#D7DBE2"/>
    <rect x="539.388" y="151.547" width="9.589" height="3.712" rx="1.856" fill="#D7DBE2"/>
    <rect x="563.208" y="177.532" width="7.424" height="3.712" rx="1.856" fill="#D7DBE2"/>
    <rect x="574.962" y="177.532" width="7.424" height="3.712" rx="1.856" fill="#D7DBE2"/>
    <rect x="586.717" y="177.532" width="7.424" height="3.712" rx="1.856" fill="#D7DBE2"/>
    <rect x="598.472" y="177.532" width="7.424" height="3.712" rx="1.856" fill="#D7DBE2"/>
    <rect x="657.246" y="177.532" width="7.424" height="3.712" rx="1.856" fill="#D7DBE2"/>
    <rect x="645.491" y="177.532" width="7.424" height="3.712" rx="1.856" fill="#D7DBE2"/>
    <rect x="633.737" y="177.532" width="7.424" height="3.712" rx="1.856" fill="#D7DBE2"/>
    <rect x="621.981" y="177.532" width="7.424" height="3.712" rx="1.856" fill="#D7DBE2"/>
    <rect x="610.226" y="177.532" width="7.424" height="3.712" rx="1.856" fill="#D7DBE2"/>
    <rect x="539.388" y="164.849" width="9.589" height="3.712" rx="1.856" fill="#D7DBE2"/>
    <rect x="527.015" y="136.08" width="8.352" height="8.352" rx="2.3" fill="#1C3FFF"/>
    <rect x="527.014" y="149.382" width="8.352" height="8.352" rx="2.3" fill="#FFCD92"/>
    <rect x="527.014" y="162.683" width="8.352" height="8.352" rx="2.3" fill="#FF8E88"/>
    <path d="M321.63 229.878c3.991-4.707 11.721-7.563 25.237 2.437 18.468 13.665 24.426-21.989 48.372-21.989 23.945 0 21.277 21.989 40.255 21.989 14.951 0 27.908-19.206 29.903-24.29" stroke="#1C3FFF" stroke-width="1.15"/>
    <circle cx="355.046" cy="235.691" r="1.788" fill="#fff" stroke="#1C3FFF" stroke-width="1.15"/>
    <path d="M337.282 226.49a1.788 1.788 0 1 1-3.576 0 1.788 1.788 0 0 1 3.576 0Z" fill="#fff" stroke="#1C3FFF" stroke-width="1.15"/>
    <circle cx="321.692" cy="229.941" r="1.788" fill="#fff" stroke="#1C3FFF" stroke-width="1.15"/>
    <circle cx="395.301" cy="210.388" r="1.788" fill="#fff" stroke="#1C3FFF" stroke-width="1.15"/>
    <circle cx="435.556" cy="232.241" r="1.788" fill="#fff" stroke="#1C3FFF" stroke-width="1.15"/>
    <circle cx="464.31" cy="209.238" r="1.788" fill="#fff" stroke="#1C3FFF" stroke-width="1.15"/>
    <rect x="320.067" y="245.814" width="8.352" height="3.712" rx="1.856" fill="#D7DBE2"/>
    <rect x="342.648" y="245.814" width="8.352" height="3.712" rx="1.856" fill="#D7DBE2"/>
    <rect x="365.54" y="245.814" width="8.352" height="3.712" rx="1.856" fill="#D7DBE2"/>
    <rect x="388.74" y="245.814" width="8.352" height="3.712" rx="1.856" fill="#D7DBE2"/>
    <rect x="411.632" y="245.814" width="8.352" height="3.712" rx="1.856" fill="#D7DBE2"/>
    <rect x="434.523" y="245.814" width="8.352" height="3.712" rx="1.856" fill="#D7DBE2"/>
    <rect x="457.414" y="245.814" width="8.352" height="3.712" rx="1.856" fill="#D7DBE2"/>
    <rect x="644.872" y="223.013" width="17.323" height="7.733" rx="3.867" fill="#EEE"/>
    <rect x="648.584" y="235.831" width="9.899" height="4.021" rx="2.011" fill="#FF8E88"/>
    <path d="M648.642 218.447c-1.509 0-2.798-.733-4.023-1.445-1.42-.811-2.776-1.583-4.35-1.108-.699.218-1.333.633-1.88 1.247a.376.376 0 0 1-.502.039c-.153-.118-.175-.316-.044-.455.634-.712 1.377-1.207 2.208-1.444 1.902-.574 3.454.316 4.962 1.187 1.268.732 2.492 1.405 3.891 1.326 2.23-.139 3.519-2.236 4.678-4.076 1.027-1.662 2.011-3.245 3.585-3.008 1.246.178 2.011 1.405 2.82 2.691.852 1.365 1.727 2.79 3.235 3.225 1.377.416 3.148-.138 5.246-1.622a.377.377 0 0 1 .503.059c.131.139.087.356-.066.455-2.295 1.642-4.284 2.216-5.924 1.741-1.77-.514-2.754-2.117-3.65-3.521-.721-1.148-1.399-2.236-2.295-2.375-1.071-.138-1.88 1.168-2.82 2.691-1.246 1.979-2.645 4.234-5.247 4.412-.131-.019-.24-.019-.327-.019Z" fill="#FF8E88"/>
  </g>
  <path d="M319.362 172.823c1.768.761 6.038.183 8.976-8.216 3.671-10.498 6.935-20.084 11.831-10.042s6.936 18.258 13.055 0c6.12-18.258 11.424-40.168 17.951-20.084 6.528 20.084 8.13 32.865 11.394 30.126 3.264-2.739 7.857-13.987 13.587-13.987 5.367 0 9.281 13.987 14.177 13.987 4.896 0 9.8-46.558 18.775-46.558 8.976 0 8.16 39.711 16.319 39.711 8.16 0 14.688-52.035 22.847-52.035 8.16 0 8.976 52.035 21.215 52.035" stroke="#5BC89A" stroke-width="1.15"/>
  <circle cx="320.544" cy="173.067" r="1.788" fill="#fff" stroke="#5BC89A" stroke-width="1.15"/>
  <circle cx="335.902" cy="150.62" r="1.788" fill="#fff" stroke="#5BC89A" stroke-width="1.15"/>
  <circle cx="346.535" cy="164.797" r="1.788" fill="#fff" stroke="#5BC89A" stroke-width="1.15"/>
  <circle cx="365.438" cy="126.991" r="1.788" fill="#fff" stroke="#5BC89A" stroke-width="1.15"/>
  <circle cx="381.978" cy="164.797" r="1.788" fill="#fff" stroke="#5BC89A" stroke-width="1.15"/>
  <circle cx="396.156" cy="150.62" r="1.788" fill="#fff" stroke="#5BC89A" stroke-width="1.15"/>
  <circle cx="410.333" cy="164.797" r="1.788" fill="#fff" stroke="#5BC89A" stroke-width="1.15"/>
  <circle cx="429.236" cy="118.721" r="1.788" fill="#fff" stroke="#5BC89A" stroke-width="1.15"/>
  <circle cx="445.776" cy="157.709" r="1.788" fill="#fff" stroke="#5BC89A" stroke-width="1.15"/>
  <circle cx="468.223" cy="105.725" r="1.788" fill="#fff" stroke="#5BC89A" stroke-width="1.15"/>
  <circle cx="489.489" cy="157.709" r="1.788" fill="#fff" stroke="#5BC89A" stroke-width="1.15"/>
  <path d="m319.331 166.244 21.226 7.912 21.227-7.912 11.43 6.246 14.695 3.331 13.063-7.079 14.695 5.414 15.92-9.995 13.879 6.663 18.777-13.742 11.838 2.915 13.471-8.329" stroke="#FFCD92" stroke-width="1.15"/>
  <circle cx="320.544" cy="166.683" r="1.788" fill="#fff" stroke="#FFCD92" stroke-width="1.15"/>
  <circle cx="341.246" cy="173.584" r="1.788" fill="#fff" stroke="#FFCD92" stroke-width="1.15"/>
  <circle cx="361.949" cy="166.683" r="1.788" fill="#fff" stroke="#FFCD92" stroke-width="1.15"/>
  <circle cx="373.45" cy="172.434" r="1.788" fill="#fff" stroke="#FFCD92" stroke-width="1.15"/>
  <circle cx="388.402" cy="175.884" r="1.788" fill="#fff" stroke="#FFCD92" stroke-width="1.15"/>
  <circle cx="401.054" cy="168.983" r="1.788" fill="#fff" stroke="#FFCD92" stroke-width="1.15"/>
  <circle cx="414.855" cy="173.584" r="1.788" fill="#fff" stroke="#FFCD92" stroke-width="1.15"/>
  <circle cx="432.107" cy="164.383" r="1.788" fill="#fff" stroke="#FFCD92" stroke-width="1.15"/>
  <circle cx="444.759" cy="170.133" r="1.788" fill="#fff" stroke="#FFCD92" stroke-width="1.15"/>
  <circle cx="464.311" cy="157.482" r="1.788" fill="#fff" stroke="#FFCD92" stroke-width="1.15"/>
  <circle cx="475.813" cy="159.782" r="1.788" fill="#fff" stroke="#FFCD92" stroke-width="1.15"/>
  <circle cx="489.614" cy="151.731" r="1.788" fill="#fff" stroke="#FFCD92" stroke-width="1.15"/>
  <path d="M713.343 333.241H525.295v-62.205c0-8.17 6.072-14.855 13.493-14.855h174.555v77.06Z" fill="#ECF1F8" style="mix-blend-mode:multiply"/>
  <path d="m499.81 597.635-13.687 2.59c-.685 0-.926-1.196-.555-2.59l18.282-34.004c.37-1.461 1.241-2.59 1.926-2.59l26.346-4.954c.685 0 .926 1.195.556 2.59l-30.942 36.368c-.389 1.461-1.241 2.59-1.926 2.59Zm47.722 6.193-6.462-5.855c-.685 0-.926-1.196-.555-2.59l11.056-16.439c.37-1.461 1.24-2.59 1.925-2.59l12.371 7.319c.685 0 .926 1.195.555 2.59l-14.851 21.168s-3.354-3.603-4.039-3.603Zm-106.069-23.616-13.115-4.392c-.581-.329-.084-1.458 1.047-2.461l36.445-16.004c1.17-1.06 2.569-1.597 3.15-1.268l57.167-12.61c.58.329.083 1.458-1.048 2.461l-80.496 33.007c-1.186 1.05-2.57 1.597-3.15 1.267Z" fill="#ECF1F8"/>
  <path d="M501.696 583.841s0-1.568 6.512-7.055c6.513-5.488 51.508-41.079 53.448-42.019 1.905-.973 5.161-2.54 5.161-2.54h-10.565l-52.997 40.827-6.062 7.745 4.503 3.042Z" fill="#DCE1E5" stroke="#BCC2C6" stroke-width=".575" stroke-miterlimit="10"/>
  <path d="M566.194 517.927s-4.296-1.191-13.648.659c-9.353 1.85-7.967 6.334-6.824 10.348 1.143 4.013 13.509-1.944 13.509-1.944l2.044-6.397 4.919-2.666Zm-.555 6.335s3.464 1.254 6.409.376c2.979-.909 8.486-3.575 9.283-3.292.831.313 1.732 1.505.416 3.041-1.317 1.537-7.24 2.822-7.24 2.822l-11.119-.407 2.251-2.54Z" fill="#EEEFF1" stroke="#BCC2C6" stroke-width=".575" stroke-miterlimit="10"/>
  <path d="m562.453 533.387-1.489.439-20.541 16.18-8.244-10.034 27.815-9.345" fill="#fff"/>
  <path d="m562.453 533.387-1.489.439-20.541 16.18-8.244-10.034 27.815-9.345" stroke="#BCC2C6" stroke-width=".575" stroke-miterlimit="10"/>
  <path d="M450.881 587.886s-1.316 6.742 1.49 6.993c2.805.282 16.557-5.927 16.557-5.927l-.797-8.121-17.25 7.055Z" fill="#DCE1E5" stroke="#BCC2C6" stroke-width=".575" stroke-miterlimit="10"/>
  <path d="M468.928 588.952s6.685-1.191 13.856 2.854c7.17 4.045 8.036-7.401 8.036-7.401l-10.392-5.456-14.583 1.066 3.083 8.937Z" fill="#DCE1E5" stroke="#BCC2C6" stroke-width=".575" stroke-miterlimit="10"/>
  <path d="M468.582 597.763s-2.286 4.328.9 6.021c3.187 1.693 11.985.125 19.537-1.725 7.585-1.85 15.206-3.951 13.266-15.616-1.94-11.665-6.2-11.132-6.2-11.132l-8.209 15.46-19.294 6.992Z" fill="#DCE1E5" stroke="#BCC2C6" stroke-width=".575" stroke-miterlimit="10"/>
  <path d="m524.142 546.243-.381.784s-35.124 24.992-37.202 26.309c-2.078 1.317-5.334 2.321-7.898 2.321-2.563 0-9.006-.439-15.068 1.661-6.096 2.101-10.218 6.931-12.296 9.565-2.079 2.634 4.122.878 4.122.878s11.673-5.269 13.613-5.519c1.94-.22 7.412.125 11.777 2.414 4.364 2.321 4.261 4.296 3.776 4.829-.485.565-17.008 8.153-16.038 8.247.97.126 7.066.565 20.194-2.414s13.509-7.589 13.509-8.906c0-1.317-1.593-5.268 1.109-8.247 2.667-2.979 30.17-23.769 30.17-23.769l-9.387-8.153Z" fill="#fff" stroke="#BCC2C6" stroke-width=".575" stroke-miterlimit="10" stroke-linejoin="round"/>
  <path d="M428.92 569.542s1.732.47 4.676 1.975c2.91 1.506 2.287-9.909 2.287-9.909l-8.279.722-1.247 1.724 2.563 5.488Z" fill="#DCE1E5" stroke="#BCC2C6" stroke-width=".575" stroke-miterlimit="10"/>
  <path d="M410.146 567.221s-1.109 5.049 1.697 5.049 17.077-2.759 17.077-2.759l-1.385-6.774-17.389 4.484Zm4.156 8.937s-2.32 5.896 7.101 6.178c9.422.282 17.25-.282 22.412-2.854 5.161-2.571 6.269-7.808 12.851-10.912 6.581-3.104 13.647-5.676 20.055-7.651 6.443-1.976 72.118-23.989 72.118-23.989s8.695-3.606 14.722-3.104c6.027.502 9.976.815 15.379-1.505 5.404-2.321 7.136-3.732 7.517-4.798.381-1.066.381-3.293-.277-3.763-.658-.47-8.971 2.509-8.971 2.509l-20.784 2.069-106.791 34.619-13.024 9.282-22.308 3.919Zm161.937-57.917s.693 1.223.139 2.76c-.555 1.536-12.124 3.355-12.124 3.355l-3.845-3.23 3.083-1.662 12.747-1.223Z" fill="#DCE1E5" stroke="#BCC2C6" stroke-width=".575" stroke-miterlimit="10"/>
  <path d="M410.146 567.222s6.858-4.202 16.418-6.899c9.561-2.697 14.306.627 21.268-.627 6.963-1.223 74.024-23.017 74.024-23.017s18.566-6.647 23.589-8.498c5.022-1.85 5.403-5.613 6.477-7.274 1.039-1.631 11.569-4.14 24.316-2.666 0 0-11.777 2.101-12.366 2.54-.588.439-.969 2.195 2.979 3.669 3.949 1.474 8.903 1.035 12.851.188 3.949-.878 5.3-1.568 6.478-.878 1.143.69-9.457 6.209-16.038 5.958-6.581-.251-18.566 3.23-36.44 9.282s-56.634 18.72-64.913 21.26c-8.313 2.54-19.432 8.561-20.575 9.878-1.144 1.317-3.776 4.547-10.254 5.77-6.477 1.223-23 1.129-23.658.25-.658-.878 14.202-3.323 16.731-4.295 2.528-.973 3.394-3.857 1.351-5.519-2.044-1.662-3.672-2.352-8.037-1.411-4.364.94-10.357 2.038-14.201 2.289Z" fill="#fff" stroke="#BCC2C6" stroke-width=".575" stroke-miterlimit="10" stroke-linejoin="round"/>
  <path d="M533.633 521.909s.936 3.607 0 5.08c-.935 1.474-5.784 2.258-3.671 5.457 2.113 3.198-8.418-2.634-8.418-2.634l1.628-5.958 10.461-1.945Zm6.824 68.485s-4.884 10.474 11.05 16.871v-4.61l-8.625-12.512-2.425.251Zm-38.969-67.7s-1.039 4.954 3.672 6.302c4.711 1.38 7.655.973 10.53 4.798 2.875 3.857 24.559 41.173 26.776 45.186 2.217 4.014 3.048 8.592 3.048 8.592l5.958-6.898-15.102-26.278-17.908-25.964-11.57-4.766-5.404-.972Zm69.694 75.979s1.974 9.439 3.568 9.564c1.593.125 5.057-9.784 5.057-9.784l-8.036-8.497-3.395-.345 2.806 9.062Z" fill="#DCE1E5" stroke="#BCC2C6" stroke-width=".575" stroke-miterlimit="10"/>
  <path d="m573.849 602.561.901 5.676s11.431-1.192 9.491-16.338l-10.392 10.662Zm-22.376-4.421s10.738-3.795 19.709.533l.346-7.997-21.302-.564 1.247 8.028Z" fill="#DCE1E5" stroke="#BCC2C6" stroke-width=".575" stroke-miterlimit="10"/>
  <path d="M510.356 516.548s-11.534 4.452-8.278 6.992c3.256 2.54 8.174-.815 14.894 9.439 6.72 10.254 25.529 42.991 27.434 46.754 1.905 3.763.658 6.083-1.247 7.306-1.905 1.223-5.473 4.578.208 10.129 5.681 5.55 8.175 5.487 8.175 5.487s-.104-8.215-.104-9.125c0-.909 3.706-2.32 10.184-2.32 6.477 0 9.283 1.536 9.976 2.446.693.909 1.801 9.344 2.806 10.034 1.004.69 5.611-1.223 8.278-6.083 2.702-4.861 2.113-7.495-3.464-10.129-5.611-2.634-11.985-2.226-17.596-9.344-5.577-7.15-31.002-44.465-31.66-45.688-.658-1.223-1.247-4.265.104-5.77 1.351-1.536 5.057-3.543 3.013-5.676-2.043-2.132-5.923-4.264-7.066-4.264 0 0-1.004.596-1.004 2.038v2.54s-2.806 1.317-6.963 1.317c-4.156 0-7.516-1.411-7.516-1.411l.173-4.484c.034 0 .069-.157-.347-.188Z" fill="#fff" stroke="#BCC2C6" stroke-width=".575" stroke-miterlimit="10"/>
  <path d="M771.426 475.02H702.38c-2.127 0-2.273-2.318-.421-5.022l47.57-70.306c1.886-2.833 5.156-5.022 7.283-5.022h85.158c2.127 0 2.272 2.318.421 5.022l-59.082 70.306c-1.943 2.833-9.756 5.022-11.883 5.022Z" fill="#ECF1F8"/>
  <path d="M769.434 474.708H524.987c-7.422 0-13.493-6.684-13.493-14.854V280.237c0-8.17 6.071-14.855 13.493-14.855h244.447c7.421 0 13.493 6.685 13.493 14.855v179.617c0 8.17-6.072 14.854-13.493 14.854Z" fill="#363636"/>
  <path d="M770.289 474.541H630.457c-4.245 0-5.761-2.632-3.37-5.849l52.582-70.729c2.392-3.217 7.822-5.85 12.067-5.85h139.832c4.245 0 5.762 2.633 3.37 5.85l-52.582 70.729c-2.391 3.217-7.822 5.849-12.067 5.849Z" fill="#363636"/>
  <path d="M769.096 464.457H629.264c-4.245 0-5.761-2.632-3.37-5.85l40.576-53.611c2.392-3.217 7.822-5.849 12.067-5.849H818.37c4.245 0 5.761 2.632 3.369 5.849l-40.576 53.611c-2.391 3.218-7.822 5.85-12.067 5.85Z" fill="#474747"/>
  <path d="M835.833 390.666c0 1.971-.575 4.929-1.725 6.983l-4.025-5.751v-4.518c0-.411.575-1.233 2.875-1.233s2.875.822 2.875 1.233v3.286Z" fill="#363636"/>
  <path d="M765.729 469.509H529.153c-7.182 0-13.059-6.381-13.059-14.181V283.851c0-7.8 5.877-14.182 13.059-14.182h236.576c7.182 0 13.058 6.382 13.058 14.182v171.477c0 7.8-5.876 14.181-13.058 14.181Z" fill="#fff" stroke="#BCC2C6" stroke-width=".403" stroke-miterlimit="10"/>
  <path d="M523.347 449.129V290.051c0-7.215 5.403-13.129 11.996-13.129h223.39c6.593 0 11.996 5.914 11.996 13.129v159.078c0 7.215-5.403 13.129-11.996 13.129h-223.39c-6.593 0-11.996-5.914-11.996-13.129Z" fill="#EEEFF1"/>
  <mask id="c" style="mask-type:alpha" maskUnits="userSpaceOnUse" x="524" y="277" width="246" height="185">
    <path d="M524.152 289.815c0-6.676 5.412-12.087 12.087-12.087h221.597c6.676 0 12.087 5.411 12.087 12.087v159.55c0 6.675-5.411 12.087-12.087 12.087H536.239c-6.675 0-12.087-5.412-12.087-12.087v-159.55Z" fill="#fff"/>
  </mask>
  <g mask="url(#c)">
    <path d="M522.93 314.318h247v169h-247v-169Z" fill="#EFF1F4"/>
    <path d="M541.521 320.675c0-.909.721-1.646 1.61-1.646h41.046c.889 0 1.609.737 1.609 1.646v6.585c0 .909-.72 1.646-1.609 1.646h-41.046c-.889 0-1.61-.737-1.61-1.646v-6.585Z" fill="#fff"/>
    <path fill-rule="evenodd" clip-rule="evenodd" d="M541.521 320.743c0-.947.762-1.714 1.703-1.714h40.86c.94 0 1.702.767 1.702 1.714v6.45c0 .946-.762 1.713-1.702 1.713h-40.86a1.708 1.708 0 0 1-1.703-1.713v-6.45Zm1.703-1.512c-.83 0-1.503.677-1.503 1.512v6.45c0 .834.673 1.511 1.503 1.511h40.86c.829 0 1.502-.677 1.502-1.511v-6.45c0-.835-.673-1.512-1.502-1.512h-40.86Zm1.838-42.069c0-.674.681-1.221 1.52-1.221h33.258c.839 0 1.52.547 1.52 1.221s-.681 1.22-1.52 1.22h-33.258c-.839 0-1.52-.546-1.52-1.22Z" fill="#D7DBE2"/>
    <path d="M587.557 320.675c0-.909.724-1.646 1.617-1.646h33.949c.893 0 1.617.737 1.617 1.646v6.585c0 .909-.724 1.646-1.617 1.646h-33.949c-.893 0-1.617-.737-1.617-1.646v-6.585Z" fill="#fff"/>
    <path fill-rule="evenodd" clip-rule="evenodd" d="M587.557 320.743c0-.947.765-1.714 1.709-1.714h33.766c.943 0 1.708.767 1.708 1.714v6.45a1.71 1.71 0 0 1-1.708 1.713h-33.766a1.711 1.711 0 0 1-1.709-1.713v-6.45Zm1.709-1.512a1.51 1.51 0 0 0-1.508 1.512v6.45a1.51 1.51 0 0 0 1.508 1.511h33.766a1.51 1.51 0 0 0 1.507-1.511v-6.45a1.51 1.51 0 0 0-1.507-1.512h-33.766Z" fill="#D7DBE2"/>
    <path d="M591.099 323.968c0-.744.677-1.347 1.512-1.347h12.91c.836 0 1.513.603 1.513 1.347s-.677 1.347-1.513 1.347h-12.91c-.835 0-1.512-.603-1.512-1.347Z" fill="#D7DBE2"/>
    <path d="M610.575 323.968c0-.744.686-1.347 1.532-1.347h7.56c.846 0 1.532.603 1.532 1.347s-.686 1.347-1.532 1.347h-7.56c-.846 0-1.532-.603-1.532-1.347Z" fill="#8D9CB4"/>
    <path d="M587.557 320.675c0-.909.724-1.646 1.617-1.646h33.949c.893 0 1.617.737 1.617 1.646v6.585c0 .909-.724 1.646-1.617 1.646h-33.949c-.893 0-1.617-.737-1.617-1.646v-6.585Z" fill="#fff"/>
    <path fill-rule="evenodd" clip-rule="evenodd" d="M587.557 320.743c0-.947.765-1.714 1.709-1.714h33.766c.943 0 1.708.767 1.708 1.714v6.45a1.71 1.71 0 0 1-1.708 1.713h-33.766a1.711 1.711 0 0 1-1.709-1.713v-6.45Zm1.709-1.512a1.51 1.51 0 0 0-1.508 1.512v6.45a1.51 1.51 0 0 0 1.508 1.511h33.766a1.51 1.51 0 0 0 1.507-1.511v-6.45a1.51 1.51 0 0 0-1.507-1.512h-33.766Z" fill="#D7DBE2"/>
    <path d="M591.099 323.968c0-.744.677-1.347 1.512-1.347h12.91c.836 0 1.513.603 1.513 1.347s-.677 1.347-1.513 1.347h-12.91c-.835 0-1.512-.603-1.512-1.347Z" fill="#D7DBE2"/>
    <path d="M610.575 323.968c0-.744.686-1.347 1.532-1.347h7.56c.846 0 1.532.603 1.532 1.347s-.686 1.347-1.532 1.347h-7.56c-.846 0-1.532-.603-1.532-1.347Zm-74.982-.325h.889c.169 0 .3-.14.3-.32 0-.17-.131-.32-.3-.32h-.889c-.169 0-.3.15-.3.32 0 .18.131.32.3.32Zm0 1.28h1.488c.169 0 .3-.14.3-.32 0-.17-.131-.32-.3-.32h-1.488c-.169 0-.3.15-.3.32 0 .18.131.32.3.32Zm0-2.561h.299c.16 0 .3-.14.3-.32 0-.17-.14-.32-.3-.32h-.299c-.169 0-.3.15-.3.32 0 .18.131.32.3.32Zm2.087 3.202h-2.087c-.169 0-.3.15-.3.32 0 .18.131.32.3.32h2.087c.169 0 .3-.14.3-.32 0-.17-.131-.32-.3-.32Zm-3.285-.851-.3.361v-3.022c0-.18-.14-.33-.3-.33-.168 0-.299.15-.299.33v3.022l-.309-.361a.281.281 0 0 0-.225-.1.31.31 0 0 0-.196.08.334.334 0 0 0-.019.451l.824.97c.112.13.327.13.44 0l.824-.97a.334.334 0 0 0-.019-.451.284.284 0 0 0-.421.02Z" fill="#8D9CB4"/>
    <path d="M522.93 277.727h247v36.813h-247v-36.813Z" fill="#FAFAFA"/>
    <rect x="693.793" y="300.173" width="50.462" height="9.877" rx="4.938" fill="#5BC89A"/>
    <path d="m537.902 292.323-1.288-1.303c.229-.358.374-.778.374-1.23 0-1.198-.976-2.186-2.16-2.186-1.194 0-2.16.988-2.16 2.186 0 1.209.966 2.186 2.16 2.186.436 0 .852-.136 1.205-.368l1.288 1.304c.093.105.249.105.353 0l.228-.231c.104-.105.104-.263 0-.358Zm-4.403-2.533a1.34 1.34 0 0 1 1.329-1.346c.727 0 1.33.61 1.33 1.346a1.34 1.34 0 0 1-1.33 1.345 1.333 1.333 0 0 1-1.329-1.345Z" fill="#ADADAF"/>
    <path d="m537.902 292.323-1.288-1.303c.229-.358.374-.778.374-1.23 0-1.198-.976-2.186-2.16-2.186-1.194 0-2.16.988-2.16 2.186 0 1.209.966 2.186 2.16 2.186.436 0 .852-.136 1.205-.368l1.288 1.304c.093.105.249.105.353 0l.228-.231c.104-.105.104-.263 0-.358Zm-4.403-2.533a1.34 1.34 0 0 1 1.329-1.346c.727 0 1.33.61 1.33 1.346a1.34 1.34 0 0 1-1.33 1.345 1.333 1.333 0 0 1-1.329-1.345Z" fill="#ADADAF"/>
    <path d="M543.292 290.298c0-.992.667-1.796 1.49-1.796h37.744c.823 0 1.49.804 1.49 1.796 0 .991-.667 1.795-1.49 1.795h-37.744c-.823 0-1.49-.804-1.49-1.795Z" fill="#E5E5E5"/>
    <path d="M758.42 305.112c0 2.727-2.18 4.938-4.869 4.938-2.689 0-4.869-2.211-4.869-4.938 0-2.728 2.18-4.939 4.869-4.939 2.689 0 4.869 2.211 4.869 4.939Z" fill="#fff"/>
    <path fill-rule="evenodd" clip-rule="evenodd" d="M753.551 309.848c2.58 0 4.671-2.12 4.671-4.736 0-2.616-2.091-4.737-4.671-4.737-2.579 0-4.67 2.121-4.67 4.737s2.091 4.736 4.67 4.736Zm0 .202c2.689 0 4.869-2.211 4.869-4.938 0-2.728-2.18-4.939-4.869-4.939-2.689 0-4.869 2.211-4.869 4.939 0 2.727 2.18 4.938 4.869 4.938Z" fill="#E5E5E5"/>
    <path d="M751.781 304.662a.445.445 0 0 0-.443.449.44.44 0 0 0 .443.449.444.444 0 0 0 .442-.449c0-.245-.2-.449-.442-.449Zm1.328 0a.445.445 0 0 0-.443.449.44.44 0 0 0 .443.449.444.444 0 0 0 .442-.449c0-.245-.2-.449-.442-.449Zm1.328 0a.445.445 0 0 0-.443.449.44.44 0 0 0 .443.449.444.444 0 0 0 .442-.449c0-.245-.2-.449-.442-.449Z" fill="#0F76F9"/>
    <path d="M714.156 288.051c0-.743.587-1.346 1.311-1.346h33.676c.724 0 1.311.603 1.311 1.346 0 .744-.587 1.347-1.311 1.347h-33.676c-.724 0-1.311-.603-1.311-1.347Z" fill="#E5E5E5"/>
    <path d="M714.156 292.092c0-.496.369-.898.823-.898h21.373c.454 0 .822.402.822.898s-.368.898-.822.898h-21.373c-.454 0-.823-.402-.823-.898Z" fill="#F4F4F4"/>
    <path d="M758.343 289.913a.329.329 0 0 0 .058-.327c-.041-.112-.141-.187-.241-.187h-2.126a.274.274 0 0 0-.249.187.333.333 0 0 0 .058.327l1.063 1.197a.247.247 0 0 0 .374 0l1.063-1.197Z" fill="#0F76F9"/>
    <path d="M681.646 289.847c0 2.728-2.18 4.938-4.869 4.938-2.69 0-4.87-2.21-4.87-4.938 0-2.727 2.18-4.938 4.87-4.938 2.689 0 4.869 2.211 4.869 4.938Z" fill="#fff"/>
    <path fill-rule="evenodd" clip-rule="evenodd" d="M676.53 294.585c2.58 0 4.671-2.121 4.671-4.737s-2.091-4.737-4.671-4.737c-2.579 0-4.67 2.121-4.67 4.737s2.091 4.737 4.67 4.737Zm0 .201c2.689 0 4.869-2.21 4.869-4.938 0-2.727-2.18-4.938-4.869-4.938-2.689 0-4.869 2.211-4.869 4.938 0 2.728 2.18 4.938 4.869 4.938Z" fill="#E5E5E5"/>
    <path d="M678.374 289.179a.344.344 0 0 0-.34-.346h-1.09v-1.105a.343.343 0 0 0-.34-.345.339.339 0 0 0-.341.345v1.105h-1.089a.34.34 0 0 0-.341.346c0 .198.145.345.341.345h1.089v1.105c0 .199.145.346.341.346.187 0 .34-.147.34-.346v-1.105h1.09c.187 0 .34-.147.34-.345Z" fill="#0F76F9"/>
    <path d="M694.679 289.848c0 2.727-2.18 4.938-4.869 4.938-2.689 0-4.869-2.211-4.869-4.938 0-2.728 2.18-4.939 4.869-4.939 2.689 0 4.869 2.211 4.869 4.939Z" fill="#fff"/>
    <path fill-rule="evenodd" clip-rule="evenodd" d="M689.81 294.584c2.58 0 4.671-2.12 4.671-4.736 0-2.616-2.091-4.737-4.671-4.737-2.579 0-4.67 2.121-4.67 4.737s2.091 4.736 4.67 4.736Zm0 .202c2.689 0 4.869-2.211 4.869-4.938 0-2.728-2.18-4.939-4.869-4.939-2.689 0-4.869 2.211-4.869 4.939 0 2.727 2.18 4.938 4.869 4.938Z" fill="#E5E5E5"/>
    <path d="M689.874 291.194c.277 0 .506-.196.506-.449h-1.012c0 .253.221.449.506.449Zm1.699-1.045c-.15-.147-.442-.365-.442-1.087 0-.541-.427-.975-1.004-1.088v-.147c0-.119-.119-.224-.253-.224-.142 0-.253.105-.253.224v.147c-.585.113-1.012.547-1.012 1.088 0 .722-.292.94-.442 1.087a.191.191 0 0 0-.064.147c0 .119.103.225.253.225h3.028c.158 0 .253-.106.26-.225a.2.2 0 0 0-.071-.147Z" fill="#0F76F9"/>
    <path d="M691.138 286.256c0-.744.646-1.347 1.443-1.347h1.54c.797 0 1.443.603 1.443 1.347s-.646 1.347-1.443 1.347h-1.54c-.797 0-1.443-.603-1.443-1.347Z" fill="#EF4B4B"/>
    <path d="M584.016 301.82c0-.909.727-1.646 1.623-1.646h6.492c.897 0 1.623.737 1.623 1.646v6.584c0 .909-.726 1.646-1.623 1.646h-6.492a1.635 1.635 0 0 1-1.623-1.646v-6.584Zm15.936 0c0-.909.726-1.646 1.623-1.646h6.492c.896 0 1.623.737 1.623 1.646v6.584c0 .909-.727 1.646-1.623 1.646h-6.492a1.634 1.634 0 0 1-1.623-1.646v-6.584Z" fill="#E5E5E5"/>
    <path d="M571.622 301.82c0-.909.726-1.646 1.623-1.646h6.492c.896 0 1.623.737 1.623 1.646v6.584c0 .909-.727 1.646-1.623 1.646h-6.492a1.634 1.634 0 0 1-1.623-1.646v-6.584Z" fill="#fff"/>
    <path fill-rule="evenodd" clip-rule="evenodd" d="M571.622 301.887c0-.946.756-1.713 1.689-1.713h6.36c.933 0 1.689.767 1.689 1.713v6.45c0 .946-.756 1.713-1.689 1.713h-6.36a1.701 1.701 0 0 1-1.689-1.713v-6.45Zm1.689-1.512c-.823 0-1.491.677-1.491 1.512v6.45c0 .835.668 1.512 1.491 1.512h6.36c.823 0 1.49-.677 1.49-1.512v-6.45c0-.835-.667-1.512-1.49-1.512h-6.36Z" fill="#E5E5E5"/>
    <path d="M574.278 304.525c0-.916.731-1.658 1.634-1.658h2.043c.903 0 1.634.742 1.634 1.658v2.072c0 .915-.731 1.657-1.634 1.657h-2.043a1.645 1.645 0 0 1-1.634-1.657v-2.072Z" fill="#E5E5E5"/>
    <path d="M612.346 301.82c0-.909.727-1.646 1.623-1.646h6.492c.897 0 1.623.737 1.623 1.646v6.584c0 .909-.726 1.646-1.623 1.646h-6.492a1.635 1.635 0 0 1-1.623-1.646v-6.584Z" fill="#fff"/>
    <path fill-rule="evenodd" clip-rule="evenodd" d="M612.346 301.887c0-.946.756-1.713 1.689-1.713h6.36c.933 0 1.689.767 1.689 1.713v6.45c0 .946-.756 1.713-1.689 1.713h-6.36a1.701 1.701 0 0 1-1.689-1.713v-6.45Zm1.689-1.512c-.823 0-1.49.677-1.49 1.512v6.45c0 .835.667 1.512 1.49 1.512h6.36c.823 0 1.491-.677 1.491-1.512v-6.45c0-.835-.668-1.512-1.491-1.512h-6.36Z" fill="#E5E5E5"/>
    <path d="M615.002 304.525c0-.916.732-1.658 1.634-1.658h2.043c.903 0 1.635.742 1.635 1.658v2.072c0 .915-.732 1.657-1.635 1.657h-2.043a1.646 1.646 0 0 1-1.634-1.657v-2.072Z" fill="#E5E5E5"/>
    <path d="M532.93 333.939c0-.896.709-1.621 1.584-1.621h68.832c.874 0 1.584.725 1.584 1.621v46.757c0 .896-.71 1.622-1.584 1.622h-68.832c-.875 0-1.584-.726-1.584-1.622v-46.757Z" fill="#fff"/>
    <path fill-rule="evenodd" clip-rule="evenodd" d="M532.93 334.033c0-.947.751-1.715 1.678-1.715h68.643c.927 0 1.679.768 1.679 1.715v46.569c0 .948-.752 1.716-1.679 1.716h-68.643c-.927 0-1.678-.768-1.678-1.716v-46.569Zm1.678-1.514c-.818 0-1.481.678-1.481 1.514v46.569c0 .836.663 1.514 1.481 1.514h68.643c.818 0 1.481-.678 1.481-1.514v-46.569c0-.836-.663-1.514-1.481-1.514h-68.643Z" fill="#fff"/>
    <path d="M609.93 333.939c0-.896.709-1.621 1.584-1.621h68.832c.874 0 1.584.725 1.584 1.621v46.757c0 .896-.71 1.622-1.584 1.622h-68.832c-.875 0-1.584-.726-1.584-1.622v-46.757Z" fill="#fff"/>
    <path fill-rule="evenodd" clip-rule="evenodd" d="M609.93 334.033c0-.947.751-1.715 1.678-1.715h68.643c.927 0 1.679.768 1.679 1.715v46.569c0 .948-.752 1.716-1.679 1.716h-68.643c-.927 0-1.678-.768-1.678-1.716v-46.569Zm1.678-1.514c-.818 0-1.481.678-1.481 1.514v46.569c0 .836.663 1.514 1.481 1.514h68.643c.818 0 1.481-.678 1.481-1.514v-46.569c0-.836-.663-1.514-1.481-1.514h-68.643Z" fill="#fff"/>
    <path d="M598.43 338.318c-.282 0-.5.226-.5.5 0 .281.218.5.5.5a.499.499 0 1 0 0-1Zm1.5 0c-.282 0-.5.226-.5.5 0 .281.218.5.5.5a.499.499 0 1 0 0-1Zm1.5 0c-.282 0-.5.226-.5.5 0 .281.218.5.5.5a.499.499 0 1 0 0-1Zm73 0c-.282 0-.5.226-.5.5 0 .281.218.5.5.5a.499.499 0 1 0 0-1Zm1.5 0c-.282 0-.5.226-.5.5 0 .281.218.5.5.5a.499.499 0 1 0 0-1Zm1.5 0c-.282 0-.5.226-.5.5 0 .281.218.5.5.5a.499.499 0 1 0 0-1Z" fill="#8D9CB4"/>
    <rect x="612.93" y="337.318" width="51" height="4" rx="2" fill="#8D9CB4"/>
    <path d="M537.095 347.537c0-.868.729-1.572 1.628-1.572h14.45c.899 0 1.628.704 1.628 1.572v3.142c0 .868-.729 1.571-1.628 1.571h-14.45c-.899 0-1.628-.703-1.628-1.571v-3.142Z" fill="#D7DBE2"/>
    <path d="M613.232 347.537c0-.868.728-1.572 1.626-1.572h13.569c.898 0 1.626.704 1.626 1.572v3.142c0 .868-.728 1.571-1.626 1.571h-13.569c-.898 0-1.626-.703-1.626-1.571v-3.142Z" fill="#9A79E0"/>
    <path d="M536.93 356.318c0-.553.537-1 1.2-1h27.6c.662 0 1.2.447 1.2 1 0 .552-.538 1-1.2 1h-27.6c-.663 0-1.2-.448-1.2-1Zm76 0c0-.553.537-1 1.2-1h27.6c.662 0 1.2.447 1.2 1 0 .552-.538 1-1.2 1h-27.6c-.663 0-1.2-.448-1.2-1Zm44 19.5c0-1.381 1.218-2.5 2.722-2.5h15.555c1.504 0 2.723 1.119 2.723 2.5 0 1.38-1.219 2.5-2.723 2.5h-15.555c-1.504 0-2.722-1.12-2.722-2.5Zm-120-14c0-.829.517-1.5 1.156-1.5h18.688c.638 0 1.156.671 1.156 1.5 0 .828-.518 1.5-1.156 1.5h-18.688c-.639 0-1.156-.672-1.156-1.5Zm76 0c0-.829.542-1.5 1.211-1.5h19.578c.668 0 1.211.671 1.211 1.5 0 .828-.543 1.5-1.211 1.5h-19.578c-.669 0-1.211-.672-1.211-1.5Z" fill="#D7DBE2"/>
    <path d="M685.827 334.127c0-.9.715-1.63 1.597-1.63h69.4c.883 0 1.598.73 1.598 1.63v47.02c0 .9-.715 1.63-1.598 1.63h-69.4c-.882 0-1.597-.73-1.597-1.63v-47.02Z" fill="#fff"/>
    <path fill-rule="evenodd" clip-rule="evenodd" d="M685.827 334.222c0-.953.757-1.725 1.692-1.725h69.21c.935 0 1.693.772 1.693 1.725v46.83c0 .953-.758 1.725-1.693 1.725h-69.21c-.935 0-1.692-.772-1.692-1.725v-46.83Zm1.692-1.522c-.825 0-1.493.681-1.493 1.522v46.83c0 .841.668 1.522 1.493 1.522h69.21c.825 0 1.494-.681 1.494-1.522v-46.83c0-.841-.669-1.522-1.494-1.522h-69.21Z" fill="#fff"/>
    <path d="M750.896 337.883a.445.445 0 0 0-.443.449.44.44 0 0 0 .443.449.444.444 0 0 0 .442-.449c0-.245-.2-.449-.442-.449Zm1.328 0a.445.445 0 0 0-.443.449.44.44 0 0 0 .443.449.444.444 0 0 0 .442-.449c0-.245-.2-.449-.442-.449Zm1.328 0a.445.445 0 0 0-.443.449.44.44 0 0 0 .443.449.444.444 0 0 0 .442-.449c0-.245-.2-.449-.442-.449Z" fill="#8D9CB4"/>
    <rect x="690.621" y="337.506" width="43.664" height="3.623" rx="1.811" fill="#8D9CB4"/>
    <path d="M708.844 347.536c0-.868.729-1.571 1.628-1.571h14.45c.899 0 1.628.703 1.628 1.571v3.142c0 .868-.729 1.572-1.628 1.572h-14.45c-.899 0-1.628-.704-1.628-1.572v-3.142Zm-18.591 8.755c0-.744.539-1.347 1.204-1.347h27.692c.665 0 1.204.603 1.204 1.347 0 .743-.539 1.346-1.204 1.346h-27.692c-.665 0-1.204-.603-1.204-1.346Zm42.494 19.304c0-1.488 1.233-2.694 2.754-2.694h15.739c1.521 0 2.754 1.206 2.754 2.694s-1.233 2.694-2.754 2.694h-15.739c-1.521 0-2.754-1.206-2.754-2.694Zm-42.494-13.917c0-.744.545-1.347 1.218-1.347h19.696c.673 0 1.218.603 1.218 1.347 0 .743-.545 1.346-1.218 1.346h-19.696c-.673 0-1.218-.603-1.218-1.346Z" fill="#D7DBE2"/>
    <path d="M690.253 347.536c0-.868.728-1.571 1.626-1.571h13.568c.898 0 1.626.703 1.626 1.571v3.142c0 .868-.728 1.572-1.626 1.572h-13.568c-.898 0-1.626-.704-1.626-1.572v-3.142Z" fill="#5BC89A"/>
    <path d="M532.668 388.897c0-.9.715-1.63 1.597-1.63h69.401c.882 0 1.597.73 1.597 1.63v47.02c0 .9-.715 1.63-1.597 1.63h-69.401c-.882 0-1.597-.73-1.597-1.63v-47.02Z" fill="#fff"/>
    <path fill-rule="evenodd" clip-rule="evenodd" d="M532.668 388.992c0-.953.758-1.725 1.693-1.725h69.21c.934 0 1.692.772 1.692 1.725v46.83c0 .953-.758 1.725-1.692 1.725h-69.21c-.935 0-1.693-.772-1.693-1.725v-46.83Zm1.693-1.522c-.825 0-1.494.681-1.494 1.522v46.83c0 .841.669 1.522 1.494 1.522h69.21c.825 0 1.493-.681 1.493-1.522v-46.83c0-.841-.668-1.522-1.493-1.522h-69.21Z" fill="#fff"/>
    <path d="M597.738 392.654a.444.444 0 0 0-.442.449.44.44 0 0 0 .442.449.449.449 0 0 0 0-.898Zm1.328 0a.444.444 0 0 0-.442.449.44.44 0 0 0 .442.449.449.449 0 0 0 0-.898Zm1.328 0a.444.444 0 0 0-.442.449.44.44 0 0 0 .442.449.449.449 0 0 0 0-.898Z" fill="#8D9CB4"/>
    <rect x="537.35" y="392.757" width="50.793" height="3.623" rx="1.811" fill="#8D9CB4"/>
    <rect x="537.35" y="337.964" width="50.793" height="3.623" rx="1.811" fill="#8D9CB4"/>
    <path d="M555.686 402.307c0-.868.729-1.572 1.628-1.572h14.45c.899 0 1.628.704 1.628 1.572v3.142c0 .868-.729 1.571-1.628 1.571h-14.45c-.899 0-1.628-.703-1.628-1.571v-3.142Zm-18.592 8.754c0-.743.54-1.346 1.204-1.346h27.693c.665 0 1.204.603 1.204 1.346 0 .744-.539 1.347-1.204 1.347h-27.693c-.664 0-1.204-.603-1.204-1.347Zm42.496 19.303c0-1.487 1.233-2.693 2.754-2.693h15.739c1.521 0 2.754 1.206 2.754 2.693 0 1.488-1.233 2.694-2.754 2.694h-15.739c-1.521 0-2.754-1.206-2.754-2.694Zm0-54.862c0-1.487 1.233-2.693 2.754-2.693h15.739c1.521 0 2.754 1.206 2.754 2.693 0 1.488-1.233 2.694-2.754 2.694h-15.739c-1.521 0-2.754-1.206-2.754-2.694Zm-42.496 40.946c0-.743.546-1.346 1.219-1.346h19.696c.673 0 1.218.603 1.218 1.346 0 .744-.545 1.347-1.218 1.347h-19.696c-.673 0-1.219-.603-1.219-1.347Z" fill="#D7DBE2"/>
    <path d="M537.094 402.307c0-.868.728-1.572 1.626-1.572h13.569c.898 0 1.626.704 1.626 1.572v3.142c0 .868-.728 1.571-1.626 1.571H538.72c-.898 0-1.626-.703-1.626-1.571v-3.142Z" fill="#5BC89A"/>
    <path d="M608.804 443.667c0-.9.715-1.63 1.597-1.63h69.401c.882 0 1.597.73 1.597 1.63v47.02c0 .901-.715 1.631-1.597 1.631h-69.401c-.882 0-1.597-.73-1.597-1.631v-47.02Z" fill="#fff"/>
    <path fill-rule="evenodd" clip-rule="evenodd" d="M608.804 443.762c0-.952.758-1.725 1.693-1.725h69.21c.934 0 1.692.773 1.692 1.725v46.83c0 .953-.758 1.726-1.692 1.726h-69.21c-.935 0-1.693-.773-1.693-1.726v-46.83Zm1.693-1.522c-.825 0-1.494.682-1.494 1.522v46.83c0 .841.669 1.523 1.494 1.523h69.21c.825 0 1.493-.682 1.493-1.523v-46.83c0-.84-.668-1.522-1.493-1.522h-69.21Z" fill="#fff"/>
    <path d="M673.874 447.425a.444.444 0 0 0-.443.448.44.44 0 0 0 .443.449.449.449 0 0 0 0-.897Zm1.328 0a.444.444 0 0 0-.443.448.44.44 0 0 0 .443.449.449.449 0 0 0 0-.897Zm1.328 0a.444.444 0 0 0-.443.448.44.44 0 0 0 .443.449.449.449 0 0 0 0-.897Z" fill="#8D9CB4"/>
    <rect x="613.094" y="447.102" width="23.169" height="3.623" rx="1.811" fill="#8D9CB4"/>
    <path d="M631.822 458.077c0-.868.729-1.571 1.628-1.571h14.45c.899 0 1.628.703 1.628 1.571v3.143c0 .867-.729 1.571-1.628 1.571h-14.45c-.899 0-1.628-.704-1.628-1.571v-3.143Z" fill="#D7DBE2"/>
    <path d="M613.232 458.077c0-.868.728-1.571 1.626-1.571h13.568c.898 0 1.626.703 1.626 1.571v3.143c0 .867-.728 1.571-1.626 1.571h-13.568c-.898 0-1.626-.704-1.626-1.571v-3.143Z" fill="#5BC89A"/>
    <path d="M609.69 388.897c0-.9.715-1.63 1.597-1.63h69.401c.882 0 1.597.73 1.597 1.63v47.02c0 .9-.715 1.63-1.597 1.63h-69.401c-.882 0-1.597-.73-1.597-1.63v-47.02Z" fill="#fff"/>
    <path fill-rule="evenodd" clip-rule="evenodd" d="M609.69 388.992c0-.953.758-1.725 1.693-1.725h69.21c.934 0 1.692.772 1.692 1.725v46.83c0 .953-.758 1.725-1.692 1.725h-69.21c-.935 0-1.693-.772-1.693-1.725v-46.83Zm1.693-1.522c-.825 0-1.494.681-1.494 1.522v46.83c0 .841.669 1.522 1.494 1.522h69.21c.824 0 1.493-.681 1.493-1.522v-46.83c0-.841-.669-1.522-1.493-1.522h-69.21Z" fill="#fff"/>
    <path d="M674.76 392.654a.445.445 0 0 0-.443.449.44.44 0 0 0 .443.449.444.444 0 0 0 .442-.449c0-.246-.2-.449-.442-.449Zm1.328 0a.445.445 0 0 0-.443.449.44.44 0 0 0 .443.449.444.444 0 0 0 .442-.449c0-.246-.2-.449-.442-.449Zm1.327 0a.444.444 0 0 0-.442.449.44.44 0 0 0 .442.449.444.444 0 0 0 .443-.449c0-.246-.2-.449-.443-.449Z" fill="#8D9CB4"/>
    <rect x="613.986" y="392.757" width="41.882" height="3.623" rx="1.811" fill="#8D9CB4"/>
    <path d="M632.707 402.306c0-.867.729-1.571 1.628-1.571h14.45c.899 0 1.628.704 1.628 1.571v3.143c0 .868-.729 1.571-1.628 1.571h-14.45c-.899 0-1.628-.703-1.628-1.571v-3.143Zm-18.591 8.755c0-.744.54-1.347 1.204-1.347h27.693c.665 0 1.204.603 1.204 1.347s-.539 1.347-1.204 1.347H615.32c-.664 0-1.204-.603-1.204-1.347Zm42.496 19.303c0-1.488 1.233-2.694 2.754-2.694h15.739c1.521 0 2.754 1.206 2.754 2.694s-1.233 2.694-2.754 2.694h-15.739c-1.521 0-2.754-1.206-2.754-2.694Zm-42.496-13.916c0-.744.546-1.347 1.219-1.347h19.696c.673 0 1.218.603 1.218 1.347s-.545 1.347-1.218 1.347h-19.696c-.673 0-1.219-.603-1.219-1.347Z" fill="#D7DBE2"/>
    <path d="M614.116 402.306c0-.867.728-1.571 1.626-1.571h13.569c.898 0 1.626.704 1.626 1.571v3.143c0 .868-.728 1.571-1.626 1.571h-13.569c-.898 0-1.626-.703-1.626-1.571v-3.143Z" fill="#F1B064"/>
    <path d="M685.827 443.667c0-.9.715-1.63 1.597-1.63h69.4c.883 0 1.598.73 1.598 1.63v47.02c0 .901-.715 1.631-1.598 1.631h-69.4c-.882 0-1.597-.73-1.597-1.631v-47.02Z" fill="#fff"/>
    <path fill-rule="evenodd" clip-rule="evenodd" d="M685.827 443.762c0-.952.757-1.725 1.692-1.725h69.21c.935 0 1.693.773 1.693 1.725v46.83c0 .953-.758 1.726-1.693 1.726h-69.21c-.935 0-1.692-.773-1.692-1.726v-46.83Zm1.692-1.522c-.825 0-1.493.682-1.493 1.522v46.83c0 .841.668 1.523 1.493 1.523h69.21c.825 0 1.494-.682 1.494-1.523v-46.83c0-.84-.669-1.522-1.494-1.522h-69.21Z" fill="#fff"/>
    <path d="M750.896 447.425a.444.444 0 0 0-.443.448.44.44 0 0 0 .443.449.444.444 0 0 0 .442-.449c0-.245-.2-.448-.442-.448Zm1.328 0a.444.444 0 0 0-.443.448.44.44 0 0 0 .443.449.444.444 0 0 0 .442-.449c0-.245-.2-.448-.442-.448Zm1.328 0a.444.444 0 0 0-.443.448.44.44 0 0 0 .443.449.444.444 0 0 0 .442-.449c0-.245-.2-.448-.442-.448Z" fill="#8D9CB4"/>
    <rect x="690.621" y="447.102" width="41.882" height="3.623" rx="1.811" fill="#8D9CB4"/>
    <path d="M708.844 458.077c0-.868.729-1.571 1.628-1.571h14.45c.899 0 1.628.703 1.628 1.571v3.143c0 .867-.729 1.571-1.628 1.571h-14.45c-.899 0-1.628-.704-1.628-1.571v-3.143Z" fill="#D7DBE2"/>
    <path d="M690.253 458.077c0-.868.728-1.571 1.626-1.571h13.568c.898 0 1.626.703 1.626 1.571v3.143c0 .867-.728 1.571-1.626 1.571h-13.568c-.898 0-1.626-.704-1.626-1.571v-3.143Z" fill="#F1B064"/>
    <path d="M685.827 388.897c0-.9.715-1.63 1.597-1.63h69.4c.883 0 1.598.73 1.598 1.63v47.02c0 .9-.715 1.63-1.598 1.63h-69.4c-.882 0-1.597-.73-1.597-1.63v-47.02Z" fill="#fff"/>
    <path fill-rule="evenodd" clip-rule="evenodd" d="M685.827 388.992c0-.953.757-1.725 1.692-1.725h69.21c.935 0 1.693.772 1.693 1.725v46.83c0 .953-.758 1.725-1.693 1.725h-69.21c-.935 0-1.692-.772-1.692-1.725v-46.83Zm1.692-1.522c-.825 0-1.493.681-1.493 1.522v46.83c0 .841.668 1.522 1.493 1.522h69.21c.825 0 1.494-.681 1.494-1.522v-46.83c0-.841-.669-1.522-1.494-1.522h-69.21Z" fill="#fff"/>
    <path d="M685.827 388.895c0-.899.792-1.628 1.77-1.628v50.28c-.978 0-1.77-.729-1.77-1.628v-47.024Z" fill="#5BC89A"/>
    <path d="M750.896 392.654a.445.445 0 0 0-.443.449.44.44 0 0 0 .443.449.444.444 0 0 0 .442-.449c0-.246-.2-.449-.442-.449Zm1.328 0a.445.445 0 0 0-.443.449.44.44 0 0 0 .443.449.444.444 0 0 0 .442-.449c0-.246-.2-.449-.442-.449Zm1.328 0a.445.445 0 0 0-.443.449.44.44 0 0 0 .443.449.444.444 0 0 0 .442-.449c0-.246-.2-.449-.442-.449Z" fill="#8D9CB4"/>
    <rect x="692.403" y="392.757" width="41.882" height="3.623" rx="1.811" fill="#8D9CB4"/>
    <path d="M710.614 402.306c0-.867.729-1.571 1.628-1.571h14.45c.899 0 1.628.704 1.628 1.571v3.143c0 .868-.729 1.571-1.628 1.571h-14.45c-.899 0-1.628-.703-1.628-1.571v-3.143Zm-18.591 8.755c0-.744.539-1.347 1.204-1.347h27.692c.665 0 1.204.603 1.204 1.347s-.539 1.347-1.204 1.347h-27.692c-.665 0-1.204-.603-1.204-1.347Zm40.724 19.303c0-1.488 1.233-2.694 2.754-2.694h15.739c1.521 0 2.754 1.206 2.754 2.694s-1.233 2.694-2.754 2.694h-15.739c-1.521 0-2.754-1.206-2.754-2.694Zm-40.724-13.916c0-.744.545-1.347 1.218-1.347h19.696c.673 0 1.218.603 1.218 1.347s-.545 1.347-1.218 1.347h-19.696c-.673 0-1.218-.603-1.218-1.347Z" fill="#D7DBE2"/>
    <path d="M692.023 402.306c0-.867.728-1.571 1.626-1.571h13.568c.899 0 1.626.704 1.626 1.571v3.143c0 .868-.727 1.571-1.626 1.571h-13.568c-.898 0-1.626-.703-1.626-1.571v-3.143Z" fill="#9A79E0"/>
    <path d="M532.668 443.667c0-.9.715-1.63 1.597-1.63h69.401c.882 0 1.597.73 1.597 1.63v47.02c0 .901-.715 1.631-1.597 1.631h-69.401c-.882 0-1.597-.73-1.597-1.631v-47.02Z" fill="#fff"/>
    <path fill-rule="evenodd" clip-rule="evenodd" d="M532.668 443.762c0-.952.758-1.725 1.693-1.725h69.21c.934 0 1.692.773 1.692 1.725v46.83c0 .953-.758 1.726-1.692 1.726h-69.21c-.935 0-1.693-.773-1.693-1.726v-46.83Zm1.693-1.522c-.825 0-1.494.682-1.494 1.522v46.83c0 .841.669 1.523 1.494 1.523h69.21c.825 0 1.493-.682 1.493-1.523v-46.83c0-.84-.668-1.522-1.493-1.522h-69.21Z" fill="#fff"/>
    <path d="M532.668 443.666c0-.9.793-1.629 1.771-1.629v50.281c-.978 0-1.771-.729-1.771-1.629v-47.023Z" fill="#5BC89A"/>
    <path d="M597.738 447.425a.443.443 0 0 0-.442.448.44.44 0 0 0 .442.449.449.449 0 0 0 0-.897Zm1.328 0a.443.443 0 0 0-.442.448.44.44 0 0 0 .442.449.449.449 0 0 0 0-.897Zm1.328 0a.443.443 0 0 0-.442.448.44.44 0 0 0 .442.449.449.449 0 0 0 0-.897Z" fill="#8D9CB4"/>
    <rect x="539.133" y="447.102" width="32.971" height="3.623" rx="1.811" fill="#8D9CB4"/>
    <path d="M557.457 458.077c0-.868.729-1.571 1.628-1.571h14.45c.899 0 1.628.703 1.628 1.571v3.143c0 .867-.729 1.571-1.628 1.571h-14.45c-.899 0-1.628-.704-1.628-1.571v-3.143Z" fill="#D7DBE2"/>
    <path d="M538.865 458.077c0-.868.728-1.571 1.626-1.571h13.569c.898 0 1.626.703 1.626 1.571v3.143c0 .867-.728 1.571-1.626 1.571h-13.569c-.898 0-1.626-.704-1.626-1.571v-3.143Z" fill="#9A79E0"/>
    <rect x="531.93" y="301.318" width="35" height="9" rx="1" fill="#E5E5E5"/>
  </g>
  <path d="m513.794 312.538 6.326 6.901v101.212l-6.326 6.901V312.538Zm266.258 115.014-6.326-6.901V319.439l6.326-6.901v115.014Z" fill="#363636"/>
  <path d="M345.498 538.318H272.1c-5.502 0-7.435-2.677-4.461-5.799l84.372-91.829c2.974-3.271 9.963-5.799 15.464-5.799h73.398c5.502 0 7.435 2.677 4.461 5.799l-84.373 91.829c-3.122 3.271-9.962 5.799-15.463 5.799Z" fill="#ECF1F8"/>
  <path d="M265.041 347.318h84.011c5.65 0 10.111 4.609 10.111 10.111v170.103c0 5.65-4.609 10.111-10.111 10.111h-84.011c-5.65 0-10.111-4.61-10.111-10.111V357.578c0-5.651 4.61-10.26 10.111-10.26Z" fill="#fff" stroke="#BCC2C6" stroke-width=".507" stroke-miterlimit="10"/>
  <mask id="e" style="mask-type:alpha" maskUnits="userSpaceOnUse" x="260" y="353" width="94" height="180">
    <path d="M268.759 531.695c-4.312 0-7.881-3.569-7.881-7.881V361.146c0-4.312 3.569-7.881 7.881-7.881h76.725c4.312 0 7.88 3.569 7.88 7.881v162.817c0 4.312-3.568 7.881-7.88 7.881h-76.725v-.149Z" fill="#DCE1E5" stroke="#BCC2C6" stroke-width=".507" stroke-miterlimit="10"/>
  </mask>
  <g clip-path="url(#d)" mask="url(#e)">
    <path fill="#EFF1F4" d="M258.985 328.058h96.903v209.826h-96.903z"/>
    <path fill="#1C3FFF" d="M258.985 328.058h96.903v57.883h-96.903z"/>
    <path d="M292.985 377.422c-1.034 0-1.636-.509-1.664-1.243a.127.127 0 0 1 .127-.131h.803c.034 0 .066.013.09.037l.003.004a.127.127 0 0 1 .037.078c.021.27.244.339.604.339.378 0 .605-.077.605-.306 0-.305-.302-.305-.757-.381-.454-.077-1.437-.306-1.437-1.222 0-.611.454-1.146 1.589-1.146.886 0 1.555.364 1.587 1.091a.123.123 0 0 1-.037.093.127.127 0 0 1-.09.038h-.803a.126.126 0 0 1-.09-.037l-.007-.007a.13.13 0 0 1-.034-.068c-.023-.129-.179-.193-.527-.193-.378 0-.529.076-.529.305 0 .305.454.305.907.382.455.076 1.287.229 1.287 1.145.001.611-.454 1.222-1.664 1.222Zm5.772-.077h-.8a.126.126 0 0 1-.092-.038.132.132 0 0 1-.038-.092v-2.161c0-.382-.151-.687-.605-.687-.53 0-.833.305-.833.993v1.855a.13.13 0 0 1-.037.092.13.13 0 0 1-.092.038h-.801a.13.13 0 0 1-.129-.13v-5.085a.13.13 0 0 1 .129-.13h.801c.034 0 .067.014.092.038a.13.13 0 0 1 .037.092v1.703h.076c.154-.155.461-.388 1.003-.382.79.008 1.419.675 1.419 1.472v2.292a.132.132 0 0 1-.038.092.126.126 0 0 1-.092.038Zm2.702.077c-1.135 0-1.892-.764-1.892-1.986 0-1.221.757-1.985 1.892-1.985 1.135 0 1.892.764 1.892 1.985 0 1.222-.757 1.986-1.892 1.986Zm0-3.055c-.53 0-.832.382-.832 1.069 0 .687.302 1.069.832 1.069s.832-.382.832-1.069c.001-.687-.302-1.069-.832-1.069Zm4.692 3.055c-.681 0-.984-.382-.984-.382h-.076v1.702a.13.13 0 0 1-.129.131h-.801a.13.13 0 0 1-.129-.131v-5.085a.13.13 0 0 1 .129-.13h.726a.13.13 0 0 1 .091.038l.016.016a.142.142 0 0 1 .032.051l.065.2h.076s.303-.382.984-.382c.908 0 1.664.764 1.664 1.986 0 1.221-.756 1.986-1.664 1.986Zm-.227-3.055c-.605 0-.833.458-.833 1.069s.228 1.069.833 1.069.832-.458.832-1.069-.227-1.069-.832-1.069Zm8.193 2.978h-.801a.13.13 0 0 1-.129-.13v-2.161c0-.382-.152-.687-.605-.687-.455 0-.681.305-.681.84v2.008a.132.132 0 0 1-.038.092.132.132 0 0 1-.092.038h-.801a.13.13 0 0 1-.129-.13v-2.161c0-.382-.152-.687-.605-.687-.455 0-.681.305-.681.84v2.008a.132.132 0 0 1-.038.092.134.134 0 0 1-.092.038h-.801a.13.13 0 0 1-.129-.13v-3.558a.13.13 0 0 1 .129-.13h.726a.13.13 0 0 1 .091.038l.016.016a.13.13 0 0 1 .032.051l.066.2h.075s.227-.382.908-.382c.605 0 .908.306 1.06.535h.075s.303-.535 1.135-.535c.908 0 1.438.535 1.438 1.528v2.236a.134.134 0 0 1-.038.093.128.128 0 0 1-.091.038Zm2.626.077c-1.135 0-1.892-.764-1.892-1.986 0-1.221.757-1.985 1.892-1.985 1.135 0 1.892.764 1.892 1.985 0 1.222-.757 1.986-1.892 1.986Zm0-3.055c-.53 0-.833.382-.833 1.069 0 .687.303 1.069.833 1.069.529 0 .832-.382.832-1.069.001-.687-.302-1.069-.832-1.069Zm6 2.978h-.801a.13.13 0 0 1-.092-.038.13.13 0 0 1-.037-.092v-2.161c0-.382-.152-.687-.606-.687-.53 0-.832.305-.832.993v1.855a.132.132 0 0 1-.038.092.125.125 0 0 1-.091.038h-.801a.13.13 0 0 1-.13-.13v-3.558a.13.13 0 0 1 .13-.13h.725c.034 0 .067.014.092.038l.016.016a.149.149 0 0 1 .031.051l.066.2h.076c.153-.154.461-.387 1.003-.382.79.008 1.418.676 1.418 1.473v2.291a.134.134 0 0 1-.038.093.125.125 0 0 1-.091.038Zm8.292-1.565a.132.132 0 0 1-.092.038h-2.242a.121.121 0 0 0-.119.144c.037.19.218.543.75.543.215 0 .43-.069.516-.206.01-.015.019-.03.032-.042a.192.192 0 0 1 .137-.058h.781a.115.115 0 0 1 .11.14c-.099.455-.493 1.082-1.577 1.082-1.286 0-1.892-.916-1.892-1.985 0-1.07.605-1.986 1.816-1.986s1.817.916 1.817 1.986v.251a.133.133 0 0 1-.037.093Zm-1.138-.761a.12.12 0 0 0 .033-.107c-.029-.165-.163-.545-.673-.545-.511 0-.644.38-.674.545a.12.12 0 0 0 .033.107.121.121 0 0 0 .085.035h1.111a.117.117 0 0 0 .085-.035Zm3.86 2.403c-.302.764-.605 1.222-1.664 1.222h-.34a.12.12 0 0 1-.119-.121l.003-.676a.12.12 0 0 1 .119-.12h.337c.378 0 .454-.076.529-.305v-.076l-1.404-3.655a.12.12 0 0 1 .112-.164h.902c.05 0 .096.033.113.081l.856 2.478.739-2.473a.12.12 0 0 1 .115-.086h.902a.12.12 0 0 1 .112.161l-1.312 3.734Zm-9.858-1.248.607.723 2.797-3.163a.119.119 0 0 0-.088-.198h-1.041a.112.112 0 0 0-.086.04l-2.189 2.598Z" fill="#fff"/>
    <path d="m325.044 375.462.622-.752 1.684 2.447a.12.12 0 0 1-.097.188h-1.009a.113.113 0 0 1-.096-.054l-1.104-1.829Zm-.436 1.883h-.745a.159.159 0 0 1-.159-.159v-5.027c0-.088.071-.159.159-.159h.745c.087 0 .158.071.158.159v5.027a.159.159 0 0 1-.158.159Z" fill="#fff"/>
    <g clip-path="url(#f)">
      <path d="M280.87 374.964v.661c0 .057.031.111.082.142l.468.271v-1.482l-.468.271a.154.154 0 0 0-.082.137Zm6.18-.14-.468-.27v1.481l.468-.271a.161.161 0 0 0 .083-.142v-.661a.162.162 0 0 0-.083-.137Zm.545-.709-.576-.331-.086-.048v-1.427a.477.477 0 0 0-.713-.413l-.399.228-.257.148v-.763a.48.48 0 0 0-.476-.476.474.474 0 0 0-.223.057l-3.425 1.823a.694.694 0 0 0-.368.615v.208l-.085.048-.579.331a.814.814 0 0 0-.408.703v.997c0 .291.157.559.408.704l.576.333.085.049v.096a.74.74 0 0 0 .368.63l2.099 1.216a.923.923 0 0 0 .916 0l2.11-1.216a.733.733 0 0 0 .368-.63v-.096l.086-.049.576-.333a.814.814 0 0 0 .408-.704v-.997a.811.811 0 0 0-.405-.703Zm.057 1.7a.463.463 0 0 1-.234.402l-.836.481v.288c0 .14-.074.268-.194.336l-2.11 1.216a.57.57 0 0 1-.565 0l-2.099-1.216a.385.385 0 0 1-.194-.336v-.288l-.836-.481a.468.468 0 0 1-.233-.402v-.997c0-.165.088-.319.231-.401l.835-.484v-.411c0-.128.072-.247.186-.307l3.425-1.823a.125.125 0 0 1 .185.111v1.168c0 .088.094.142.171.099l1.007-.578a.127.127 0 0 1 .191.111v1.63l.836.481a.463.463 0 0 1 .234.402v.999Zm-2.25-1.942a.634.634 0 0 0-.628 0l-.773.447-.773-.447a.632.632 0 0 0-.627 0l-.645.37v1.404l.574.336v1.257l1.106.635a.732.732 0 0 0 .725 0l1.098-.635v-1.257l.593-.339-.006-1.404-.644-.367Zm-2.616 1.145a.364.364 0 1 1 .729-.001.364.364 0 0 1-.729.001Zm2.145 1.817-.146.086a1.56 1.56 0 0 1-1.571.002l-.143-.085v-.302c0-.097.106-.157.189-.108a1.456 1.456 0 0 0 1.48-.003l.003-.003a.125.125 0 0 1 .188.108v.305Zm-.08-1.453a.364.364 0 1 1 0-.729.364.364 0 1 1 0 .729Z" fill="#fff"/>
    </g>
    <rect x="265.703" y="392.143" width="83.465" height="18.605" rx="1.292" fill="#fff"/>
    <path d="M272.767 399.507h-1.381v.935h1.62v.577h-2.339v-3.49h2.335v.582h-1.616v.832h1.381v.564Zm1.253-1.082.022.3a.905.905 0 0 1 .746-.348c.275 0 .479.081.613.243.135.161.203.402.207.724v1.675h-.693v-1.659c0-.147-.032-.253-.096-.319-.064-.067-.17-.1-.319-.1a.478.478 0 0 0-.439.249v1.829h-.693v-2.594h.652Zm2.014 1.278c0-.398.095-.718.283-.961a.924.924 0 0 1 .767-.365c.285 0 .506.098.664.293l.029-.245h.628v2.508a1.1 1.1 0 0 1-.156.592.985.985 0 0 1-.434.384 1.524 1.524 0 0 1-.656.132c-.191 0-.376-.039-.557-.116a.982.982 0 0 1-.41-.292l.307-.422c.173.193.382.29.628.29.184 0 .327-.049.43-.148.102-.098.153-.237.153-.418v-.139a.8.8 0 0 1-.631.271.921.921 0 0 1-.757-.364c-.192-.245-.288-.568-.288-.971v-.029Zm.693.05c0 .235.047.42.142.554a.449.449 0 0 0 .388.199c.211 0 .362-.079.453-.237v-1.091c-.093-.158-.242-.237-.448-.237a.454.454 0 0 0-.393.204c-.095.135-.142.338-.142.608Zm2.944 1.266h-.695v-2.594h.695v2.594Zm-.736-3.265a.34.34 0 0 1 .103-.256.393.393 0 0 1 .285-.101c.119 0 .213.033.283.101a.336.336 0 0 1 .106.256.337.337 0 0 1-.108.259.39.39 0 0 1-.281.101.4.4 0 0 1-.283-.101.342.342 0 0 1-.105-.259Zm1.947.671.021.3a.906.906 0 0 1 .746-.348c.275 0 .479.081.614.243.134.161.202.402.206.724v1.675h-.693v-1.659c0-.147-.032-.253-.096-.319-.064-.067-.17-.1-.319-.1a.478.478 0 0 0-.439.249v1.829h-.692v-2.594h.652Zm3.308 2.642c-.38 0-.69-.116-.93-.35-.238-.233-.357-.544-.357-.932v-.067c0-.261.05-.494.151-.698.1-.206.243-.364.426-.475.186-.112.397-.168.633-.168.355 0 .634.112.837.336.204.224.307.541.307.952v.283h-1.652c.022.169.09.305.201.407a.616.616 0 0 0 .43.154.748.748 0 0 0 .625-.29l.341.381a1.052 1.052 0 0 1-.422.345 1.406 1.406 0 0 1-.59.122Zm-.079-2.129a.441.441 0 0 0-.336.139.732.732 0 0 0-.163.398h.964v-.055a.51.51 0 0 0-.125-.355.447.447 0 0 0-.34-.127Zm5.677.415c0 .344-.061.645-.182.904a1.368 1.368 0 0 1-.523.599 1.432 1.432 0 0 1-.777.211c-.289 0-.547-.069-.774-.208a1.393 1.393 0 0 1-.528-.595 2.07 2.07 0 0 1-.189-.892v-.172c0-.344.062-.646.185-.906.124-.263.299-.463.525-.602a1.44 1.44 0 0 1 .776-.211c.291 0 .549.07.775.211.227.139.402.339.525.602.124.26.187.561.187.903v.156Zm-.729-.158c0-.366-.066-.644-.197-.834a.64.64 0 0 0-.561-.286.64.64 0 0 0-.558.283c-.131.187-.198.462-.199.825v.17c0 .357.065.633.196.83a.64.64 0 0 0 .566.294.633.633 0 0 0 .556-.282c.13-.191.195-.467.197-.83v-.17Zm1.937 1.824h-.695v-2.594h.695v2.594Zm-.736-3.265a.34.34 0 0 1 .103-.256.391.391 0 0 1 .285-.101c.119 0 .213.033.283.101a.336.336 0 0 1 .106.256.337.337 0 0 1-.108.259.39.39 0 0 1-.281.101.4.4 0 0 1-.283-.101.342.342 0 0 1-.105-.259Zm2.04 3.265h-.695v-3.682h.695v3.682Zm1.7-.939c0-.162.045-.311.134-.449.091-.137.257-.29.499-.458a2.474 2.474 0 0 1-.245-.39.878.878 0 0 1-.089-.384c0-.272.086-.492.257-.662.173-.171.404-.256.695-.256a.9.9 0 0 1 .64.232.758.758 0 0 1 .252.581c0 .278-.141.523-.422.736l-.268.194.601.7c.095-.186.142-.39.142-.614h.59c0 .454-.105.821-.315 1.103l.523.606h-.786l-.18-.206a1.57 1.57 0 0 1-.887.254c-.345 0-.622-.09-.83-.271a.909.909 0 0 1-.311-.716Zm1.175.431a.876.876 0 0 0 .472-.139l-.688-.796-.051.036a.55.55 0 0 0-.213.429c0 .139.044.253.132.341a.48.48 0 0 0 .348.129Zm-.255-2.122c0 .12.071.271.211.454l.185-.123a.61.61 0 0 0 .194-.177.373.373 0 0 0 .055-.206c0-.08-.029-.15-.088-.209a.31.31 0 0 0-.228-.089.316.316 0 0 0-.24.096.36.36 0 0 0-.089.254Zm5.766 1.204h-1.381v1.426h-.719v-3.49h2.273v.582h-1.554v.902h1.381v.58Zm1.275 1.426h-.695v-2.594h.695v2.594Zm-.736-3.265c0-.104.035-.189.103-.256a.395.395 0 0 1 .286-.101.39.39 0 0 1 .283.101c.07.067.105.152.105.256a.337.337 0 0 1-.108.259.39.39 0 0 1-.28.101.399.399 0 0 1-.283-.101.343.343 0 0 1-.106-.259Zm2.04 3.265h-.695v-3.682h.695v3.682Zm1.403-3.231v.637h.443v.509h-.443v1.294c0 .096.018.165.055.206.037.042.107.063.211.063.077 0 .145-.006.204-.017v.525a1.448 1.448 0 0 1-.42.062c-.486 0-.733-.245-.743-.736v-1.397h-.379v-.509h.379v-.637h.693Zm2.023 3.279c-.38 0-.69-.116-.93-.35-.238-.233-.357-.544-.357-.932v-.067c0-.261.05-.494.151-.698.101-.206.243-.364.427-.475.185-.112.396-.168.633-.168.354 0 .633.112.836.336.205.224.307.541.307.952v.283h-1.652c.023.169.09.305.202.407a.612.612 0 0 0 .429.154.75.75 0 0 0 .626-.29l.34.381a1.052 1.052 0 0 1-.422.345 1.403 1.403 0 0 1-.59.122Zm-.079-2.129a.439.439 0 0 0-.335.139.717.717 0 0 0-.163.398h.963v-.055a.509.509 0 0 0-.124-.355.45.45 0 0 0-.341-.127Zm2.999.137a1.835 1.835 0 0 0-.249-.019c-.262 0-.434.089-.516.266v1.697h-.692v-2.594h.654l.019.31c.139-.239.332-.358.578-.358.077 0 .149.011.216.032l-.01.666Zm2.896.667h-.573v1.277h-.719v-3.49h1.297c.412 0 .73.092.954.275.224.184.336.444.336.78 0 .238-.052.437-.156.597a1.045 1.045 0 0 1-.468.378l.756 1.427v.033h-.772l-.655-1.277Zm-.573-.583h.58c.181 0 .321-.046.42-.137a.495.495 0 0 0 .149-.381.526.526 0 0 0-.142-.388c-.093-.095-.236-.142-.429-.142h-.578v1.048Zm2.275.921c0-.162.045-.311.135-.449.091-.137.257-.29.498-.458a2.462 2.462 0 0 1-.244-.39.878.878 0 0 1-.089-.384c0-.272.085-.492.256-.662.173-.171.405-.256.696-.256.26 0 .474.077.64.232a.758.758 0 0 1 .252.581c0 .278-.141.523-.422.736l-.269.194.602.7a1.34 1.34 0 0 0 .141-.614h.59c0 .454-.105.821-.314 1.103l.523.606h-.787l-.18-.206a1.57 1.57 0 0 1-.887.254c-.345 0-.621-.09-.829-.271a.906.906 0 0 1-.312-.716Zm1.175.431a.873.873 0 0 0 .472-.139l-.688-.796-.05.036a.55.55 0 0 0-.213.429c0 .139.043.253.131.341.09.086.206.129.348.129Zm-.254-2.122c0 .12.07.271.211.454l.184-.123a.614.614 0 0 0 .195-.177.382.382 0 0 0 .055-.206c0-.08-.03-.15-.089-.209a.309.309 0 0 0-.228-.089.313.313 0 0 0-.239.096.356.356 0 0 0-.089.254Zm3.735 1.353h-.573v1.277h-.719v-3.49h1.297c.412 0 .73.092.954.275.224.184.335.444.335.78 0 .238-.051.437-.155.597a1.05 1.05 0 0 1-.468.378l.755 1.427v.033h-.772l-.654-1.277Zm-.573-.583h.58c.181 0 .321-.046.42-.137a.494.494 0 0 0 .148-.381.525.525 0 0 0-.141-.388c-.093-.095-.236-.142-.429-.142h-.578v1.048Zm12.594 3.526a.427.427 0 0 0-.11-.311c-.072-.079-.195-.151-.369-.216a4.783 4.783 0 0 1-.451-.194 1.543 1.543 0 0 1-.326-.223.946.946 0 0 1-.211-.297 1.022 1.022 0 0 1-.074-.406c0-.27.086-.491.259-.664.173-.172.402-.273.688-.302v-.513h.384v.52c.282.04.504.159.664.355.159.195.239.449.239.76h-.693c0-.192-.039-.335-.119-.429a.389.389 0 0 0-.317-.144.401.401 0 0 0-.304.113.42.42 0 0 0-.108.307c0 .121.035.219.105.292.071.074.201.149.391.226.192.076.349.149.472.218.123.067.227.144.312.23a.878.878 0 0 1 .194.292.995.995 0 0 1 .067.382c0 .271-.084.492-.254.661-.169.17-.403.27-.7.3v.477h-.381v-.475c-.328-.035-.582-.151-.762-.347-.179-.199-.269-.461-.269-.789h.693c0 .19.045.336.134.439.091.1.222.151.391.151a.475.475 0 0 0 .333-.111.388.388 0 0 0 .122-.302Zm3.438-1.644a.808.808 0 0 1-.127.45.914.914 0 0 1-.35.315 1 1 0 0 1 .403.338c.099.142.149.31.149.503 0 .31-.106.555-.317.736-.211.179-.498.268-.861.268-.362 0-.65-.09-.863-.27-.212-.181-.318-.426-.318-.734 0-.193.049-.362.148-.506a.984.984 0 0 1 .401-.335.907.907 0 0 1-.35-.315.815.815 0 0 1-.125-.45c0-.297.099-.534.297-.71.198-.177.468-.266.808-.266.339 0 .607.088.806.264.199.174.299.411.299.712Zm-.621 1.556a.503.503 0 0 0-.132-.365.468.468 0 0 0-.354-.136.469.469 0 0 0-.353.136.499.499 0 0 0-.132.365c0 .148.044.268.13.359a.47.47 0 0 0 .359.137.467.467 0 0 0 .353-.132.498.498 0 0 0 .129-.364Zm-.072-1.523a.48.48 0 0 0-.107-.326.382.382 0 0 0-.305-.124c-.129 0-.23.04-.302.12a.474.474 0 0 0-.108.33c0 .139.036.251.108.336a.376.376 0 0 0 .304.127c.132 0 .232-.042.303-.127a.507.507 0 0 0 .107-.336Zm1.942.477h.369c.176 0 .307-.044.391-.131a.483.483 0 0 0 .127-.35.424.424 0 0 0-.127-.329.484.484 0 0 0-.345-.117.503.503 0 0 0-.333.11.344.344 0 0 0-.134.283h-.693c0-.182.048-.345.146-.489a.987.987 0 0 1 .412-.341c.178-.081.373-.122.585-.122.369 0 .659.089.868.266.209.176.314.419.314.729 0 .16-.049.307-.146.441a.952.952 0 0 1-.384.309.863.863 0 0 1 .439.317c.097.14.146.307.146.498 0 .31-.113.559-.34.746-.226.187-.524.28-.897.28-.348 0-.633-.091-.856-.275a.903.903 0 0 1-.33-.729h.692c0 .131.049.238.147.321.099.083.22.125.364.125a.542.542 0 0 0 .386-.13.45.45 0 0 0 .141-.347c0-.349-.191-.523-.575-.523h-.367v-.542Zm2.179 1.712c0-.11.037-.2.111-.268a.397.397 0 0 1 .28-.103c.114 0 .207.034.281.103a.345.345 0 0 1 .112.268.346.346 0 0 1-.11.266.404.404 0 0 1-.283.101.4.4 0 0 1-.28-.101.346.346 0 0 1-.111-.266Zm3.047.341h-.692v-2.671l-.827.256v-.563l1.445-.518h.074v3.496Zm2.757-1.396a.87.87 0 0 1-.633.266c-.308 0-.555-.105-.74-.316-.186-.213-.278-.499-.278-.858 0-.229.049-.438.148-.628.101-.192.241-.341.42-.446.179-.107.38-.161.604-.161.23 0 .435.058.614.173.179.115.318.28.417.496.099.216.149.463.151.741v.256c0 .582-.145 1.039-.434 1.371-.289.333-.699.51-1.23.533l-.17.002v-.578l.153-.002c.603-.027.929-.31.978-.849Zm-.462-.263a.474.474 0 0 0 .287-.087.572.572 0 0 0 .185-.208v-.286c0-.235-.045-.417-.134-.546a.417.417 0 0 0-.703-.003.811.811 0 0 0-.134.477.8.8 0 0 0 .129.47.43.43 0 0 0 .37.183Z" fill="#8D9CB4"/>
    <rect x="270.355" y="404.289" width="17.572" height="2.584" rx="1.292" fill="#D7DBE2"/>
    <rect x="265.703" y="460.363" width="83.465" height="18.605" rx="1.292" fill="#fff"/>
    <rect x="270.355" y="465.532" width="30.75" height="3.101" rx="1.55" fill="#8D9CB4"/>
    <rect x="270.355" y="471.216" width="17.572" height="2.584" rx="1.292" fill="#D7DBE2"/>
    <rect x="328.755" y="465.531" width="15.763" height="2.584" rx="1.292" fill="#D7DBE2"/>
    <rect x="265.703" y="437.623" width="83.465" height="18.605" rx="1.292" fill="#fff"/>
    <rect x="270.355" y="442.791" width="30.75" height="3.101" rx="1.55" fill="#8D9CB4"/>
    <rect x="270.355" y="448.476" width="17.572" height="2.584" rx="1.292" fill="#D7DBE2"/>
    <rect x="328.755" y="442.791" width="15.763" height="2.584" rx="1.292" fill="#D7DBE2"/>
    <rect x="265.703" y="414.883" width="83.465" height="18.605" rx="1.292" fill="#fff"/>
    <rect x="270.355" y="420.052" width="30.75" height="3.101" rx="1.55" fill="#8D9CB4"/>
    <rect x="270.355" y="425.736" width="17.572" height="2.584" rx="1.292" fill="#D7DBE2"/>
    <rect x="328.755" y="420.051" width="15.763" height="2.584" rx="1.292" fill="#D7DBE2"/>
    <path fill="#fff" d="M258.985 485.17h96.903v53.49h-96.903z"/>
    <rect x="265.703" y="516.178" width="83.465" height="15.246" rx="1.292" fill="#01C9A1"/>
    <path d="M304.302 524.465v1.365h-.638v-3.674h1.406c.41 0 .736.107.976.32.242.214.364.497.364.848 0 .36-.119.64-.356.841-.236.2-.566.3-.992.3h-.76Zm0-.512h.768c.227 0 .4-.053.519-.159.12-.108.18-.263.18-.465a.632.632 0 0 0-.182-.474c-.121-.12-.288-.181-.5-.184h-.785v1.282Zm4.21 1.877a.931.931 0 0 1-.071-.255.953.953 0 0 1-.717.306c-.274 0-.498-.079-.671-.235a.753.753 0 0 1-.26-.581c0-.291.108-.513.323-.668.217-.157.527-.235.929-.235h.376v-.179a.474.474 0 0 0-.119-.338c-.079-.086-.199-.129-.361-.129a.534.534 0 0 0-.343.106.321.321 0 0 0-.134.265h-.613c0-.15.05-.289.149-.419a.989.989 0 0 1 .404-.308c.171-.074.362-.111.573-.111.319 0 .574.081.764.242.19.16.288.386.293.677v1.231c0 .246.034.442.103.588v.043h-.625Zm-.674-.442a.684.684 0 0 0 .34-.088.591.591 0 0 0 .243-.237v-.515h-.331c-.227 0-.398.04-.512.119a.383.383 0 0 0-.172.335c0 .118.039.212.116.283a.464.464 0 0 0 .316.103Zm2.753-.436.555-1.852h.654l-1.085 3.144c-.167.459-.45.689-.848.689a1.08 1.08 0 0 1-.296-.046v-.474l.117.008c.154 0 .27-.029.348-.086a.556.556 0 0 0 .187-.283l.088-.235-.959-2.717h.661l.578 1.852Z" fill="#fff"/>
    <rect x="265.703" y="491.371" width="22.74" height="2.584" rx="1.292" fill="#D7DBE2"/>
    <rect x="265.704" y="498.09" width="20.156" height="2.584" rx="1.292" fill="#D7DBE2"/>
    <rect x="331.855" y="491.371" width="17.313" height="2.584" rx="1.292" fill="#D7DBE2"/>
    <rect x="333.923" y="498.09" width="15.246" height="2.584" rx="1.292" fill="#D7DBE2"/>
    <rect x="322.294" y="506.876" width="26.874" height="3.101" rx="1.55" fill="#8D9CB4"/>
  </g>
  <path d="M331.655 352.819v5.056a5.647 5.647 0 0 1-5.65 5.65h-37.916a5.648 5.648 0 0 1-5.651-5.65v-5.056" fill="#fff"/>
  <path d="M296.862 355.496h11.746" stroke="#BCC2C6" stroke-width=".507" stroke-miterlimit="10" stroke-linecap="round"/>
  <path d="M315.002 357.875a2.38 2.38 0 1 0-.001-4.759 2.38 2.38 0 0 0 .001 4.759Z" fill="#0F76F9"/>
  <defs>
    <clipPath id="b">
      <path fill="#fff" transform="translate(264 24)" d="M0 0h20v20H0z"/>
    </clipPath>
    <clipPath id="d">
      <path fill="#fff" transform="translate(258.985 328.058)" d="M0 0h96.903v209.826H0z"/>
    </clipPath>
    <clipPath id="f">
      <path fill="#fff" transform="translate(280 371)" d="M0 0h8v8H0z"/>
    </clipPath>
  </defs>
</svg>